<svg xmlns="http://www.w3.org/2000/svg" width="88.561" height="88.552" viewBox="0 0 88.561 88.552"><defs><style>.a{fill:#010000;}</style></defs><g transform="translate(0)"><g transform="translate(0 0)"><g transform="translate(0)"><path class="a" d="M88.166,20.691a25.079,25.079,0,0,0-46.937-7.161A20.647,20.647,0,0,0,5.9,28.066v2.952A1.476,1.476,0,0,0,7.38,32.494a1.521,1.521,0,0,0,.18-.028A23.481,23.481,0,0,0,15.847,47.8c.127.1.26.195.388.3v5.474L3.962,57.66a1.476,1.476,0,0,0-1,1.246L.008,86.947a1.476,1.476,0,0,0,1.314,1.621,1.432,1.432,0,0,0,.154.008H51.656A1.476,1.476,0,0,0,53.132,87.1a1.461,1.461,0,0,0-.007-.148L50.173,58.912a1.476,1.476,0,0,0-1-1.246L36.9,53.569V48.1c.128-.1.261-.19.388-.3a23.542,23.542,0,0,0,6.064-7.751A25.09,25.09,0,0,0,59.035,49.79v3.366H56.084a1.476,1.476,0,0,0-1.476,1.476v5.9a1.476,1.476,0,0,0,1.476,1.476V81.2a7.379,7.379,0,1,0,14.759,0V62.011a1.476,1.476,0,0,0,1.476-1.476v-5.9a1.476,1.476,0,0,0-1.476-1.476H67.891V49.79A25.078,25.078,0,0,0,88.166,20.691ZM16.235,85.625H3.116L5.8,60.159l10.439-3.48ZM8.856,28.066A17.673,17.673,0,0,1,39.927,16.5a24.351,24.351,0,0,0-1.384,11.431,7.379,7.379,0,0,1-6.073-7.248,1.476,1.476,0,0,0-1.8-1.442l-.886.2A63.477,63.477,0,0,0,8.856,28.224v-.158ZM19.187,85.625v-19.6l5.23-1.744-3.7,13.578a1.488,1.488,0,0,0,.1,1.048l3.361,6.717Zm0-22.711V59.972l3.532,1.771ZM23.711,78.1,26.566,67.62,29.422,78.1l-2.856,5.7Zm10.235,7.527H28.954l3.368-6.72a1.488,1.488,0,0,0,.1-1.048l-3.7-13.578,5.223,1.747Zm0-22.711-3.532-1.181,3.532-1.762Zm0-6.243-7.379,3.69-7.379-3.69V49.953a16.631,16.631,0,0,0,14.759,0Zm13.391,3.487,2.68,25.466H36.9V56.679ZM35.395,45.532a13.786,13.786,0,0,1-17.657,0A20.515,20.515,0,0,1,10.4,30.752,60.511,60.511,0,0,1,29.676,22.5a10.349,10.349,0,0,0,9.419,8.488,24.912,24.912,0,0,0,2.324,6.1A20.577,20.577,0,0,1,35.395,45.532ZM67.891,81.2a4.428,4.428,0,0,1-8.855,0V62.011h8.855Zm1.476-25.09V59.06H57.559V56.108Zm-7.379-2.952V50.129c.491.03.977.075,1.476.075s.984-.046,1.476-.075v3.027Zm1.476-5.9A22.138,22.138,0,1,1,85.6,25.115,22.138,22.138,0,0,1,63.463,47.253Z" transform="translate(0 -0.025)"/><path class="a" d="M259.19,32.025a19.186,19.186,0,1,0,19.186,19.186A19.186,19.186,0,0,0,259.19,32.025Zm0,35.421a16.234,16.234,0,1,1,16.235-16.234A16.235,16.235,0,0,1,259.19,67.446Z" transform="translate(-195.727 -26.122)"/><path class="a" d="M388.435,82.369l-2.087,2.087a11.069,11.069,0,0,1,0,15.623l2.087,2.087A14.021,14.021,0,0,0,388.435,82.369Z" transform="translate(-315.073 -67.178)"/><rect class="a" width="2.952" height="3.3" transform="translate(68.551 38.219) rotate(-116.565)"/></g></g></g></svg>