<svg xmlns="http://www.w3.org/2000/svg" width="172.265" height="88.552" viewBox="0 0 172.265 88.552"><defs><style>.a{fill:#010000;}</style></defs><g transform="translate(0)"><g transform="translate(0)"><path class="a" d="M1.476,88.552h67.89a1.476,1.476,0,0,0,1.476-1.476V76.745c0-.025-.013-.044-.015-.069a1.494,1.494,0,0,0-.091-.46.139.139,0,0,0-.016-.053,1.479,1.479,0,0,0-.226-.37L55.144,57.65a4.427,4.427,0,0,0-3.383-1.567H41.886A48.166,48.166,0,0,1,46.6,48.692c.3.044.62.074.958.093l6.758.657a4.147,4.147,0,0,0,2.928,2.081c.114.018.226.018.339.027.037,0,.068.022.106.022l8.694.084H66.5a5.313,5.313,0,0,0,2.677-.782l1.966.213a1.465,1.465,0,0,0,.161.009h.186c6.641-.5,13.109-7.3,15.727-16.53,2.5-8.815.912-17.433-3.92-21.676a5.434,5.434,0,0,0-2.989-3.6c-.009,0-.013-.01-.022-.015L74.288,6.6a4.112,4.112,0,0,0-3.73-.276L61.719,1.907a1.018,1.018,0,0,0-.127-.049A11.4,11.4,0,0,0,58.713.573c-4.4-1.247-9.224.159-13.578,3.963a27.836,27.836,0,0,0-5.281,6.346L13.8.117H13.79a1.328,1.328,0,0,0-.241-.05A1.423,1.423,0,0,0,13.224,0H1.476A1.476,1.476,0,0,0,0,1.476V6.19a1.461,1.461,0,0,0,.114.562,1.359,1.359,0,0,0,.182.27,1.56,1.56,0,0,0,.136.2,1.488,1.488,0,0,0,.478.32l34.535,14.28a31.163,31.163,0,0,0,.533,16.9,72.13,72.13,0,0,0-4.2,17.362H19.081A4.428,4.428,0,0,0,15.7,57.65L.348,75.791a1.478,1.478,0,0,0-.226.37c-.007.016-.009.035-.015.052a1.462,1.462,0,0,0-.093.462c0,.025-.015.044-.015.069V87.076a1.476,1.476,0,0,0,1.476,1.476ZM67.89,85.6H2.952V78.221H67.89ZM25.506,66.414a17.95,17.95,0,0,1,5.564-1.256c-.03.821-.034,1.663-.046,2.5A17.652,17.652,0,0,1,25.506,66.414ZM38.9,39.307A37.885,37.885,0,0,1,42.5,32.352a15.549,15.549,0,0,1,1.328-1.771c.08-.061,3-2.159,14.137,1.9a17.5,17.5,0,0,1-5,5.772,26.691,26.691,0,0,0-4.413,3.611c-1.328,1.4-2.577,2.841-3.719,4.28A49.13,49.13,0,0,0,38.2,56.968l-.012.027A31.537,31.537,0,0,0,35.5,67.89q-.781,0-1.526-.022c.139-11.1,1.784-20.717,4.928-28.559ZM60.491,26.443a26.668,26.668,0,0,1-1.229,3.377c-10.4-3.837-14.891-2.89-16.624-1.981a27.01,27.01,0,0,1,.992-6.185C46,13.283,51.885,7.31,56.444,8.591c4.566,1.3,6.427,9.479,4.047,17.854ZM66.775,7.729l7,3.5a19.249,19.249,0,0,1,.3,5.534A53.764,53.764,0,0,1,69.82,32.838a44.4,44.4,0,0,1-7.432,12.729A14.715,14.715,0,0,1,60.806,47.1l-5.018-.486c5.313-3.175,9.918-9.556,12.2-17.6,2.254-7.984,1.6-15.8-1.212-21.289Zm-28,57.334a19.905,19.905,0,0,1,6.568,1.353,20.812,20.812,0,0,1-6.913,1.368A25.223,25.223,0,0,1,38.772,65.063Zm27.7-16.36h-.043l-2.944-.03c.453-.429.832-.832,1.11-1.144a48.65,48.65,0,0,0,7.949-13.559,56.539,56.539,0,0,0,4.47-16.958,22.794,22.794,0,0,0-.269-6.092l2.344,1.043h.028c.009,0,.015.012.024.015A2.794,2.794,0,0,1,80.572,14a1.169,1.169,0,0,0,.043.148,18.564,18.564,0,0,1,.218,5.23A45.912,45.912,0,0,1,77.7,32.469a46.634,46.634,0,0,1-6.007,11.4c-.161.218-.335.463-.521.722C69.994,46.228,68.226,48.7,66.471,48.7Zm17.9-14.955C82.263,41.187,77.288,46.969,72.307,48c.469-.59.886-1.181,1.263-1.7l.493-.682a49.66,49.66,0,0,0,6.395-12.111,48.879,48.879,0,0,0,3.315-13.922c.021-.3.044-.663.065-1.071A22.58,22.58,0,0,1,84.372,33.749ZM47.08,6.758C50.656,3.634,54.5,2.447,57.91,3.412c7.276,2.066,10.52,13.188,7.232,24.8-2.8,9.888-9.593,17.186-16.2,17.62q.85-.978,1.756-1.939a23.993,23.993,0,0,1,3.936-3.209,21.558,21.558,0,0,0,6.746-8.345c.018-.038.032-.078.05-.117a29.575,29.575,0,0,0,1.9-4.975c2.9-10.251.235-19.692-6.082-21.5s-13.556,4.85-16.46,15.1a28.357,28.357,0,0,0-1.033,10.29,36.856,36.856,0,0,0-1.882,3.288,30.964,30.964,0,0,1,.863-13.689A29.108,29.108,0,0,1,47.08,6.758ZM12.93,2.952,38.4,13.481a36.463,36.463,0,0,0-2.187,5.474L2.952,5.2V2.952Zm5.018,56.605a1.476,1.476,0,0,1,1.132-.522h12.4q-.148,1.55-.242,3.142c-3.884.344-9.1,1.345-9.1,4.237,0,3.057,5.877,4,9.716,4.28a1.462,1.462,0,0,0,.615.148,1.4,1.4,0,0,0,.393-.08c.79.049,1.623.08,2.559.08.458,0,.9-.013,1.343-.027q.066.017.133.027a1.351,1.351,0,0,0,.174-.035c3.6-.112,11.633-.787,11.633-4.392,0-2.893-5.174-3.908-9.246-4.259a32.425,32.425,0,0,1,1.083-3.12H51.757a1.476,1.476,0,0,1,1.128.522l13.3,15.712H4.658Z" transform="translate(0)"/><path class="a" d="M17.428,34.855A4.428,4.428,0,1,0,13,30.428,4.428,4.428,0,0,0,17.428,34.855Zm0-5.9a1.476,1.476,0,1,1-1.476,1.476A1.476,1.476,0,0,1,17.428,28.952Z" transform="translate(6.186 12.372)"/><ellipse class="a" cx="1.362" cy="1.816" rx="1.362" ry="1.816" transform="translate(13.207 33.799)"/><ellipse class="a" cx="1.362" cy="1.816" rx="1.362" ry="1.816" transform="translate(17.746 26.536)"/></g><path class="a" d="M3,65.722a1.383,1.383,0,0,0,.714,1.211L42.456,88.379a1.383,1.383,0,0,0,1.339,0L82.537,66.933a1.383,1.383,0,0,0,0-2.421L65.352,55l17.185-9.512a1.383,1.383,0,0,0,0-2.421L65.353,33.553,82.537,24.04a1.383,1.383,0,0,0,0-2.421L43.8.173a1.391,1.391,0,0,0-1.341,0L3.713,21.619a1.384,1.384,0,0,0,0,2.421L20.9,33.553,3.714,43.065a1.383,1.383,0,0,0,0,2.421L20.9,55,3.714,64.512A1.383,1.383,0,0,0,3,65.722Zm37.268,0L23.748,74.86l-6.823-3.776,16.515-9.14Zm2.857,19.865L36.287,81.8,72.176,61.939l6.835,3.783ZM69.318,60.357,33.429,80.221,26.6,76.444,43.8,66.934,62.5,56.582ZM23.748,13.692l6.83,3.779-6.825,3.776-6.828-3.779Zm9.681-5.362,6.831,3.78-6.825,3.776L26.6,12.108Zm26.209,3.775L52.8,15.889l-6.827-3.777,6.838-3.784Zm9.68,5.359-6.835,3.783-6.825-3.776,6.838-3.783ZM52.8,26.606,45.974,22.83,52.8,19.052l6.824,3.777Zm9.681-2.193L69.316,28.2l-6.823,3.776-6.837-3.783ZM49.943,28.189l-6.825,3.777L36.29,28.189l6.827-3.777Zm0-10.718-6.824,3.776L36.29,17.471l6.827-3.777ZM33.434,19.052l6.824,3.777-6.825,3.776L26.609,22.83Zm-2.859,9.136-6.83,3.779-6.823-3.776,6.828-3.779Zm2.857,1.581,6.827,3.777-6.831,3.78L26.6,33.549Zm9.684,5.36,6.837,3.784-6.828,3.78-6.838-3.786Zm9.7,2.2-6.838-3.784L52.8,29.77l6.837,3.784ZM72.175,26.613,65.34,22.83l6.835-3.783L79.01,22.83ZM43.125,2.965l6.83,3.78-6.838,3.784L36.286,6.751ZM14.066,19.051l6.828,3.779-6.828,3.779L7.239,22.83Zm9.688,16.083,18.7,10.352a1.383,1.383,0,0,0,1.339,0L62.5,35.134l16.515,9.142L43.125,64.141,7.239,44.276Zm0,21.448,6.828,3.779L14.066,69.5,7.239,65.722Z" transform="translate(89.014 0)"/></g></svg>