<svg xmlns="http://www.w3.org/2000/svg" width="94.455" height="88.552" viewBox="0 0 94.455 88.552"><defs><style>.a{fill:#010000;}</style></defs><path class="a" d="M88.921,18.767a2.77,2.77,0,0,1-2.767,2.767H41.693A41.686,41.686,0,0,0,0,63.043a40.958,40.958,0,0,0,5.632,20.8A11.068,11.068,0,1,0,20.723,98.9a41.567,41.567,0,0,0,41.784.049A11.068,11.068,0,1,0,77.595,83.857,41.457,41.457,0,0,0,78.4,43.672h7.752a2.77,2.77,0,0,1,2.767,2.767v2.767h5.534V16H88.921ZM11.069,99.017a5.534,5.534,0,0,1-2.3-10.567,42.677,42.677,0,0,0,7.34,7.319,5.581,5.581,0,0,1-5.039,3.247Zm66.6-5.535a5.533,5.533,0,0,1-10.546,2.345,41.868,41.868,0,0,0,7.356-7.356,5.58,5.58,0,0,1,3.19,5.011ZM88.921,38.612a8.266,8.266,0,0,0-2.767-.474H41.693a24.935,24.935,0,1,0,15.635,5.534H71.995a35.96,35.96,0,0,1-30.3,55.345,35.975,35.975,0,1,1,0-71.948h44.46a8.266,8.266,0,0,0,2.767-.474ZM61.064,63.043A19.463,19.463,0,1,1,41.693,43.672,19.393,19.393,0,0,1,61.064,63.043Z" transform="translate(0 -16)"/><path class="a" d="M179.266,226.43l4.95,2.475,7.537-15.074H180.684l3.532-7.064-4.95-2.475-7.537,15.074H182.8Z" transform="translate(-140.048 -169.555)"/></svg>