<svg xmlns="http://www.w3.org/2000/svg" width="82.648" height="88.552" viewBox="0 0 82.648 88.552"><defs><style>.a,.b{fill:#010000;}.b{fill-rule:evenodd;}</style></defs><g transform="translate(0 0)"><g transform="translate(0)"><path class="a" d="M283.184,45.069a4.428,4.428,0,1,0-4.428,4.428A4.428,4.428,0,0,0,283.184,45.069Zm-5.9,0a1.476,1.476,0,1,1,1.476,1.476A1.476,1.476,0,0,1,277.281,45.069Z" transform="translate(-237.432 -34.738)"/><path class="a" d="M27.7,48.7a4.428,4.428,0,0,0-4.428,4.428v18.3a1.467,1.467,0,0,1-.248.818L21.058,75.18a4.411,4.411,0,0,0-.738,2.457V85.6a2.952,2.952,0,0,0,2.952,2.952h15.17a2.952,2.952,0,0,0,2.8-2.017l.8-2.41h8.2l.8,2.41a2.952,2.952,0,0,0,2.8,2.017H69.435a2.952,2.952,0,0,0,2.8-2.017l.8-2.41h8.2l.8,2.41a2.952,2.952,0,0,0,2.8,2.017h15.17a2.952,2.952,0,0,0,2.952-2.952V77.63a4.4,4.4,0,0,0-.738-2.456l-1.961-2.941a1.476,1.476,0,0,1-.252-.8v-18.3A4.428,4.428,0,0,0,95.589,48.7H91.51L65.6,35.747a7.279,7.279,0,0,0,3.226-4.512,7.41,7.41,0,0,0-3.952-8.359,2.952,2.952,0,0,1-1.7-2.214h1.513a4.418,4.418,0,0,0,3.395-1.592L73.9,12.1a4.427,4.427,0,0,0,1.033-2.834V4.428A4.428,4.428,0,0,0,70.507,0H52.789a4.428,4.428,0,0,0-4.428,4.428V9.262A4.441,4.441,0,0,0,49.394,12.1l5.81,6.97A4.416,4.416,0,0,0,58.6,20.666h1.6a5.855,5.855,0,0,0,3.383,4.87,4.435,4.435,0,1,1-6.361,3.98,1.476,1.476,0,0,0-2.952,0,6.978,6.978,0,0,0,3.448,6.219L31.779,48.7ZM57.464,17.179l-5.809-6.97a1.486,1.486,0,0,1-.342-.946V4.428a1.476,1.476,0,0,1,1.476-1.476H70.5a1.476,1.476,0,0,1,1.476,1.476V9.262a1.476,1.476,0,0,1-.341.945l-5.812,6.974a1.476,1.476,0,0,1-1.133.53H58.6a1.476,1.476,0,0,1-1.135-.531Zm39.6,35.952v18.3a4.4,4.4,0,0,0,.738,2.456l1.961,2.941a1.477,1.477,0,0,1,.246.816V85.6H84.846l-.8-2.41a2.952,2.952,0,0,0-2.8-2.017h-8.2a2.952,2.952,0,0,0-2.8,2.017l-.8,2.41H53.853l-.8-2.41a2.952,2.952,0,0,0-2.8-2.017h-8.2a2.952,2.952,0,0,0-2.8,2.017l-.8,2.41H23.272V77.63a1.467,1.467,0,0,1,.248-.818l1.966-2.931a4.412,4.412,0,0,0,.738-2.45v-18.3A1.476,1.476,0,0,1,27.7,51.655h67.89a1.476,1.476,0,0,1,1.476,1.476ZM61.644,37.071,84.91,48.7H38.379Z" transform="translate(-20.32 0)"/><path class="b" d="M87.186,375.932H82.759a1.476,1.476,0,0,0-1.476,1.476v4.428a1.476,1.476,0,1,0,2.952,0v-2.952h2.952a1.476,1.476,0,1,0,0-2.952Z" transform="translate(-72.428 -321.325)"/></g></g></svg>