<svg xmlns="http://www.w3.org/2000/svg" width="125.94" height="88.552" viewBox="0 0 125.94 88.552"><defs><style>.a{fill:#010000;}</style></defs><g transform="translate(0 35.42)"><path class="a" d="M27.549,187.733H1.968A1.967,1.967,0,0,0,0,189.7v11.807a1.967,1.967,0,0,0,1.968,1.968H27.55a1.968,1.968,0,0,0,1.968-1.968V189.7A1.968,1.968,0,0,0,27.549,187.733ZM25.582,199.54H3.936v-7.871H25.581v7.871Z" transform="translate(0 -187.733)"/></g><g transform="translate(35.421 0)"><path class="a" d="M177.833,150.693l-17.4-42.53L177.82,67.6a1.967,1.967,0,0,0-1.808-2.743H124.848A1.967,1.967,0,0,0,123.04,67.6l17.386,40.566-17.4,42.53a1.969,1.969,0,0,0,1.822,2.713h51.163a1.969,1.969,0,0,0,1.822-2.713Zm-50.055-1.223,16.6-40.579a1.965,1.965,0,0,0-.013-1.52L127.833,68.79h45.194L156.493,107.37a1.968,1.968,0,0,0-.013,1.52l16.6,40.579Z" transform="translate(-122.881 -64.854)"/></g><g transform="translate(25.581 27.55)"><g transform="translate(0 0)"><path class="a" d="M111.52,174.558,91.842,160.783a1.967,1.967,0,0,0-3.1,1.613v27.549a1.967,1.967,0,0,0,3.1,1.612l19.678-13.775a1.967,1.967,0,0,0,0-3.224ZM92.682,186.167V166.175l14.278,10Z" transform="translate(-88.746 -160.428)"/></g></g><g transform="translate(96.423 35.42)"><path class="a" d="M362.056,187.733H336.474a1.968,1.968,0,0,0-1.968,1.968v11.807a1.967,1.967,0,0,0,1.968,1.968h25.582a1.968,1.968,0,0,0,1.968-1.968V189.7A1.968,1.968,0,0,0,362.056,187.733Zm-1.968,11.807H338.442v-7.871h21.646Z" transform="translate(-334.506 -187.733)"/></g><g transform="translate(76.745 27.55)"><path class="a" d="M288.8,160.651a1.973,1.973,0,0,0-2.037.133L267.08,174.56a1.968,1.968,0,0,0,0,3.224l19.678,13.775a1.967,1.967,0,0,0,3.1-1.612V162.4A1.967,1.967,0,0,0,288.8,160.651Zm-2.877,25.516-14.278-10,14.278-10Z" transform="translate(-266.24 -160.43)"/></g></svg>