<svg xmlns="http://www.w3.org/2000/svg" width="97.587" height="97.587" viewBox="0 0 97.587 97.587"><defs><style>.a{fill:#010000;}</style></defs><path class="a" d="M48.018,43A11.018,11.018,0,1,0,59.036,54.018,11.032,11.032,0,0,0,48.018,43Zm0,18.888a7.87,7.87,0,1,1,7.87-7.87A7.879,7.879,0,0,1,48.018,61.888Z" transform="translate(19.664 23.108)"/><path class="a" d="M49.033,57.372l-2.455-3.157a21.743,21.743,0,0,0,2.583-6.25l3.976-.5a1.573,1.573,0,0,0,1.379-1.561v-6.3a1.573,1.573,0,0,0-1.379-1.561l-3.976-.5a21.761,21.761,0,0,0-2.583-6.25l2.455-3.157a1.574,1.574,0,0,0-.129-2.079l-4.451-4.451a1.571,1.571,0,0,0-2.079-.129l-3.157,2.455a21.761,21.761,0,0,0-6.25-2.583l-.5-3.976A1.575,1.575,0,0,0,30.906,16h-6.3a1.573,1.573,0,0,0-1.561,1.379l-.5,3.976a21.8,21.8,0,0,0-6.25,2.583l-3.157-2.455a1.571,1.571,0,0,0-2.079.129L6.613,26.063a1.574,1.574,0,0,0-.129,2.079L8.939,31.3a21.743,21.743,0,0,0-2.583,6.25l-3.976.5A1.575,1.575,0,0,0,1,39.61v6.3a1.573,1.573,0,0,0,1.379,1.561l3.976.5a21.761,21.761,0,0,0,2.583,6.25L6.482,57.372a1.574,1.574,0,0,0,.129,2.079L11.063,63.9a1.571,1.571,0,0,0,2.079.129L16.3,61.576a21.743,21.743,0,0,0,6.25,2.583l.5,3.976a1.575,1.575,0,0,0,1.563,1.38h6.3a1.573,1.573,0,0,0,1.561-1.379l.5-3.976a21.761,21.761,0,0,0,6.25-2.583l3.157,2.455a1.571,1.571,0,0,0,2.079-.129L48.9,59.453a1.576,1.576,0,0,0,.131-2.081Zm-5.627-2.106L45.7,58.208,43.208,60.7l-2.942-2.289a1.574,1.574,0,0,0-1.857-.057,18.637,18.637,0,0,1-7.157,2.958,1.576,1.576,0,0,0-1.273,1.352l-.463,3.708H26l-.464-3.707a1.574,1.574,0,0,0-1.273-1.352,18.622,18.622,0,0,1-7.157-2.958,1.576,1.576,0,0,0-1.857.057L12.306,60.7,9.819,58.21l2.289-2.942a1.574,1.574,0,0,0,.057-1.857,18.637,18.637,0,0,1-2.958-7.157A1.576,1.576,0,0,0,7.855,44.98l-3.707-.464V41l3.707-.464a1.574,1.574,0,0,0,1.352-1.273,18.622,18.622,0,0,1,2.958-7.157,1.576,1.576,0,0,0-.057-1.857L9.819,27.306l2.487-2.487,2.942,2.289a1.569,1.569,0,0,0,1.856.057,18.694,18.694,0,0,1,7.159-2.958,1.576,1.576,0,0,0,1.273-1.352L26,19.148h3.516l.464,3.707a1.574,1.574,0,0,0,1.273,1.352,18.67,18.67,0,0,1,7.159,2.958,1.572,1.572,0,0,0,1.856-.057l2.942-2.289L45.7,27.306l-2.289,2.942a1.574,1.574,0,0,0-.057,1.857,18.637,18.637,0,0,1,2.958,7.157,1.576,1.576,0,0,0,1.352,1.273L51.368,41v3.516l-3.707.464a1.574,1.574,0,0,0-1.352,1.273,18.622,18.622,0,0,1-2.958,7.157,1.571,1.571,0,0,0,.055,1.856Z" transform="translate(-1 7.61)"/><path class="a" d="M23.74,23A15.74,15.74,0,1,0,39.48,38.74,15.758,15.758,0,0,0,23.74,23Zm0,28.332A12.592,12.592,0,1,1,36.332,38.74,12.607,12.607,0,0,1,23.74,51.332Z" transform="translate(3.018 11.628)"/><path class="a" d="M47.018,43.48A11.032,11.032,0,0,0,58.036,32.462a11.342,11.342,0,0,0-4.278-8.9,13.156,13.156,0,0,1-4.673-7.678l-.524-2.618a1.573,1.573,0,0,0-3.085,0l-.524,2.618a13.148,13.148,0,0,1-4.673,7.678A11.342,11.342,0,0,0,36,32.462,11.032,11.032,0,0,0,47.018,43.48ZM42.246,26.02a16.307,16.307,0,0,0,4.772-6.258A16.318,16.318,0,0,0,51.79,26.02a8.207,8.207,0,0,1,3.1,6.442,7.87,7.87,0,1,1-15.74,0A8.207,8.207,0,0,1,42.246,26.02Z" transform="translate(19.09 5.314)"/><path class="a" d="M49.3,25H46.148A3.151,3.151,0,0,1,43,28.148V31.3A6.3,6.3,0,0,0,49.3,25Z" transform="translate(23.108 12.776)"/><path class="a" d="M66.758,12.561a13.156,13.156,0,0,1-4.673-7.678L61.56,2.265a1.573,1.573,0,0,0-3.085,0l-.524,2.618a13.148,13.148,0,0,1-4.673,7.678A11.342,11.342,0,0,0,49,21.462a11.018,11.018,0,1,0,22.036,0,11.342,11.342,0,0,0-4.278-8.9Zm-6.74,16.771a7.879,7.879,0,0,1-7.87-7.87,8.207,8.207,0,0,1,3.1-6.442,16.3,16.3,0,0,0,4.772-6.257,16.318,16.318,0,0,0,4.772,6.258,8.2,8.2,0,0,1,3.1,6.441A7.879,7.879,0,0,1,60.018,29.332Z" transform="translate(26.552 -1)"/><path class="a" d="M59.148,14A3.151,3.151,0,0,1,56,17.148V20.3A6.3,6.3,0,0,0,62.3,14Z" transform="translate(30.569 6.462)"/><path class="a" d="M70.35,52.74H68.123a17.18,17.18,0,0,0-1.544-3.716l1.579-1.579a1.572,1.572,0,0,0,0-2.226l-4.451-4.451a1.572,1.572,0,0,0-2.226,0L59.9,42.347A17.1,17.1,0,0,0,56.185,40.8V38.574A1.573,1.573,0,0,0,54.611,37h-6.3a1.573,1.573,0,0,0-1.574,1.574V40.8a17.18,17.18,0,0,0-3.716,1.544l-1.579-1.579a1.572,1.572,0,0,0-2.226,0L34.77,45.218a1.572,1.572,0,0,0,0,2.226l1.579,1.579A17.1,17.1,0,0,0,34.8,52.738h-2.23A1.573,1.573,0,0,0,31,54.312v6.3a1.573,1.573,0,0,0,1.574,1.574H34.8A17.181,17.181,0,0,0,36.345,65.9l-1.579,1.579a1.572,1.572,0,0,0,0,2.226l4.451,4.451a1.572,1.572,0,0,0,2.226,0l1.579-1.579a17.1,17.1,0,0,0,3.716,1.544v2.23a1.573,1.573,0,0,0,1.574,1.574h6.3a1.573,1.573,0,0,0,1.574-1.574V74.123A17.18,17.18,0,0,0,59.9,72.578l1.579,1.579a1.572,1.572,0,0,0,2.226,0l4.451-4.451a1.572,1.572,0,0,0,0-2.226L66.575,65.9a17.1,17.1,0,0,0,1.544-3.716h2.23a1.573,1.573,0,0,0,1.574-1.574v-6.3A1.573,1.573,0,0,0,70.35,52.74Zm-1.574,6.3h-1.89A1.573,1.573,0,0,0,65.343,60.3a13.987,13.987,0,0,1-2.065,4.969,1.571,1.571,0,0,0,.2,1.983l1.343,1.343-2.226,2.226-1.343-1.343a1.573,1.573,0,0,0-1.983-.2A13.987,13.987,0,0,1,54.3,71.343a1.573,1.573,0,0,0-1.262,1.543v1.89H49.888v-1.89a1.573,1.573,0,0,0-1.262-1.543,13.987,13.987,0,0,1-4.969-2.065,1.573,1.573,0,0,0-1.983.2l-1.343,1.343L38.1,68.593l1.343-1.343a1.571,1.571,0,0,0,.2-1.983A13.987,13.987,0,0,1,37.581,60.3a1.573,1.573,0,0,0-1.543-1.262h-1.89V55.888h1.89a1.573,1.573,0,0,0,1.543-1.262,13.987,13.987,0,0,1,2.065-4.969,1.571,1.571,0,0,0-.2-1.983L38.1,46.331,40.331,44.1l1.343,1.343a1.573,1.573,0,0,0,1.983.2,13.987,13.987,0,0,1,4.969-2.065,1.573,1.573,0,0,0,1.262-1.543v-1.89h3.148v1.89A1.573,1.573,0,0,0,54.3,43.581a13.987,13.987,0,0,1,4.969,2.065,1.573,1.573,0,0,0,1.983-.2L62.593,44.1l2.226,2.226-1.343,1.343a1.571,1.571,0,0,0-.2,1.983,13.987,13.987,0,0,1,2.065,4.969,1.573,1.573,0,0,0,1.543,1.262h1.89Z" transform="translate(16.22 19.664)"/></svg>