<svg xmlns="http://www.w3.org/2000/svg" width="88.913" height="88.552" viewBox="0 0 88.913 88.552"><defs><style>.a{fill:#010000;}</style></defs><g transform="translate(0)"><path class="a" d="M51.428,20.714A14.714,14.714,0,1,0,36.714,35.428,14.731,14.731,0,0,0,51.428,20.714Zm-26.485,0A11.771,11.771,0,1,1,36.714,32.485,11.785,11.785,0,0,1,24.943,20.714Z" transform="translate(7.767 0.153)"/><path class="a" d="M41.714,24.243V12.471A1.472,1.472,0,0,0,40.243,11H28.471A1.472,1.472,0,0,0,27,12.471V24.243a1.472,1.472,0,0,0,1.471,1.471H40.243A1.472,1.472,0,0,0,41.714,24.243Zm-2.943-1.471H29.943V13.943h2.943v2.943h2.943V13.943h2.943Z" transform="translate(10.124 2.51)"/><path class="a" d="M9.3,77.956a1.416,1.416,0,0,0-1.314-.739,1.47,1.47,0,0,0-1.274.8L1.929,87.427a1.472,1.472,0,0,0,1.2,2.134l10.638.8a.965.965,0,0,0,.112.006,1.471,1.471,0,0,0,1.277-2.2l-2.244-3.911L37.352,70.463a17.447,17.447,0,0,0,8.9,2.25,17.423,17.423,0,0,0,8.921-2.264l24.436,13.7-2.259,3.886a1.472,1.472,0,0,0,1.273,2.212c.031,0,.06,0,.091,0l10.59-.652a1.472,1.472,0,0,0,1.23-2.117l-4.675-9.524a1.471,1.471,0,0,0-1.268-.823,1.422,1.422,0,0,0-1.324.731l-2.178,3.746L57.625,68.45a6.82,6.82,0,0,0,1.869-4.566,6.91,6.91,0,0,0-2.044-4.75l23.5-13.251L83.2,49.812a1.47,1.47,0,0,0,1.277.739h.043a1.473,1.473,0,0,0,1.274-.815l4.731-9.5a1.47,1.47,0,0,0-1.217-2.123L78.723,37.4a1.448,1.448,0,0,0-1.348.687,1.472,1.472,0,0,0-.029,1.513l2.138,3.729L54.917,57.184a14.962,14.962,0,0,0-2.538-1.13c2.874-4.118,5.825-8.372,8.327-12.853,4.192-7.526,6.145-13.949,6.145-20.21,0-11.676-9.236-21.173-20.591-21.173s-20.589,9.5-20.608,21.173c0,6.577,1.878,13.015,5.911,20.263a137.516,137.516,0,0,0,8.452,12.839,15.087,15.087,0,0,0-2.45,1.1L13,43.435l2.153-3.7A1.472,1.472,0,0,0,13.8,37.523l-10.538.561a1.472,1.472,0,0,0-1.248,2.107l4.623,9.616a1.47,1.47,0,0,0,1.268.833.376.376,0,0,0,.057,0,1.474,1.474,0,0,0,1.273-.733l2.284-3.929L35.033,59.154a6.529,6.529,0,0,0-.14,9.315L11.449,81.7ZM5.553,86.793,8.1,81.781l3.121,5.441Zm78.874-5.078,2.491,5.075-5.643.347ZM86.907,40.9l-2.521,5.06-3.121-5.441ZM8.087,46.031,5.625,40.907l5.615-.3Zm26.047-4.21c-3.78-6.791-5.54-12.773-5.54-18.828C28.61,12.939,36.535,4.761,46.259,4.761s17.648,8.178,17.648,18.231c0,5.74-1.835,11.706-5.772,18.777-2.5,4.48-5.51,8.792-8.419,12.962-1.212,1.738-2.376,3.4-3.478,5.047-1.081-1.557-2.2-3.118-3.293-4.644A142.458,142.458,0,0,1,34.134,41.821Zm4.273,18.3A12.033,12.033,0,0,1,41.8,58.6c1.114,1.56,2.2,3.093,3.236,4.632a1.471,1.471,0,0,0,1.211.647h.022a1.448,1.448,0,0,0,.469-.093,1.331,1.331,0,0,0,.127-.05,1.424,1.424,0,0,0,.391-.252s.012-.006.018-.012l.015-.015-.006-.006a1.507,1.507,0,0,0,.206-.246c.977-1.508,2.036-3.055,3.128-4.629a12.042,12.042,0,0,1,3.446,1.511c1.6,1.1,2.484,2.445,2.484,3.79,0,3.19-4.717,5.886-10.3,5.886s-10.3-2.7-10.3-5.886a4.834,4.834,0,0,1,2.456-3.768Z" transform="translate(-1.77 -1.818)"/></g></svg>