<svg xmlns="http://www.w3.org/2000/svg" width="88.552" height="88.552" viewBox="0 0 88.552 88.552"><defs><style>.a{fill:#010000;}</style></defs><path class="a" d="M88.552,77.527,55.288,44.251,74.5,25.036a10.3,10.3,0,0,0,6.685-3.018l7.336-7.339L73.844,0,66.507,7.339a10.3,10.3,0,0,0-3.017,6.688L44.284,33.242,25.077,14.027A10.3,10.3,0,0,0,22.06,7.339L14.724,0,.051,14.679l7.336,7.339a10.3,10.3,0,0,0,6.685,3.018L33.279,44.251l-7.886,7.889a10.389,10.389,0,0,0-6.685,3.018L0,73.873,14.673,88.552,33.381,69.836A10.4,10.4,0,0,0,36.4,63.149l7.886-7.889L77.547,88.536h11ZM70.175,11.009l3.668-3.67,7.336,7.339-3.668,3.67a5.189,5.189,0,0,1-7.336-7.339ZM18.392,18.349a5.186,5.186,0,0,1-7.336,0l-3.668-3.67,7.336-7.339,3.668,3.67a5.191,5.191,0,0,1,0,7.339ZM20,23.622a10.474,10.474,0,0,0,3.668-3.67L40.615,36.911l-3.668,3.67Zm-5.322,57.59L7.336,73.873,11,70.2l7.336,7.339ZM31.159,61.05l.064,1.158a5.2,5.2,0,0,1-1.51,3.959l-7.7,7.706-7.336-7.339,7.7-7.706a5.2,5.2,0,0,1,3.957-1.511l1.158.064,9.456-9.46,3.668,3.67Zm9.456-16.8L64.9,19.953a10.474,10.474,0,0,0,3.668,3.67L44.284,47.92ZM79.7,83.347,47.952,51.59l3.668-3.67L83.364,79.677v3.67Z"/></svg>