<svg xmlns="http://www.w3.org/2000/svg" width="88.6" height="88.552" viewBox="0 0 88.6 88.552"><defs><style>.a{fill:#010000;}</style></defs><g transform="translate(0)"><path class="a" d="M57.605.434A30.793,30.793,0,0,0,40.661,5.508L33.829,1.568A2.958,2.958,0,0,0,31.6,1.287,2.891,2.891,0,0,0,29.82,2.663L27.609,6.5a19.611,19.611,0,0,0-4.947,0l-2.2-3.819a2.9,2.9,0,0,0-1.791-1.39,2.957,2.957,0,0,0-2.241.289L8.75,6.007a2.947,2.947,0,0,0-1.068,4.034l2.21,3.831a18.685,18.685,0,0,0-2.465,4.273H3A2.955,2.955,0,0,0,.045,21.1v8.856A2.955,2.955,0,0,0,3,32.9H7.426a18.711,18.711,0,0,0,2.465,4.273L7.686,41a2.947,2.947,0,0,0,1.068,4.044l7.688,4.436a2.957,2.957,0,0,0,2.227.281,2.89,2.89,0,0,0,1.782-1.376l2.211-3.833a19.483,19.483,0,0,0,4.947,0l1.572,2.733-1.8,1.8a4.363,4.363,0,0,0-.851,5.022l-4.57,4.569a4.539,4.539,0,0,0-5.013.838L1.3,75.167a4.428,4.428,0,0,0,0,6.262L7.558,87.69a4.433,4.433,0,0,0,6.262,0L29.475,72.037a4.421,4.421,0,0,0,.852-5.027l4.556-4.557a4.36,4.36,0,0,0,3.536.126V63.9a2.956,2.956,0,0,0,2.952,2.952H45.8a18.681,18.681,0,0,0,2.465,4.272l-2.206,3.824a2.948,2.948,0,0,0,1.068,4.044l7.688,4.435a2.951,2.951,0,0,0,2.227.281,2.888,2.888,0,0,0,1.782-1.376L61.036,78.5a19.611,19.611,0,0,0,4.947,0l2.2,3.818a2.9,2.9,0,0,0,1.791,1.39,2.955,2.955,0,0,0,2.241-.289l7.678-4.43a2.947,2.947,0,0,0,1.068-4.034l-2.209-3.831a18.7,18.7,0,0,0,2.464-4.272h4.429A2.956,2.956,0,0,0,88.6,63.9V55.042a2.956,2.956,0,0,0-2.952-2.952H81.215c-.056-.137-.134-.278-.2-.417A30.95,30.95,0,0,0,57.605.434ZM85.647,31.427a28.019,28.019,0,0,1-13.153,23.72c-.033.024-.074.037-.1.063A27.247,27.247,0,0,1,53.8,59.181a1.47,1.47,0,0,0-.71-.132c-.019,0-.033.013-.051.016A28.027,28.027,0,1,1,85.647,31.427ZM72.364,59.47A8.843,8.843,0,0,1,55.137,62.3c.817.065,1.635.125,2.468.125a30.788,30.788,0,0,0,14.7-3.716c.022.255.059.51.059.764ZM26.612,31.427c0,.942.059,1.87.141,2.791a8.85,8.85,0,1,1-1.617-17.55,8.681,8.681,0,0,1,4.586,1.315,30.756,30.756,0,0,0-3.11,13.444ZM22.154,41.488a1.468,1.468,0,0,0-1.545.714L17.9,46.915l-7.665-4.433,2.716-4.708a1.476,1.476,0,0,0-.157-1.7,15.873,15.873,0,0,1-2.959-5.132,1.474,1.474,0,0,0-1.394-.993H3V21.1H8.443A1.475,1.475,0,0,0,9.837,20.1a15.876,15.876,0,0,1,2.96-5.132,1.475,1.475,0,0,0,.157-1.7L10.229,8.561l7.665-4.423L20.61,8.845a1.464,1.464,0,0,0,1.545.714,16.654,16.654,0,0,1,5.961,0,1.471,1.471,0,0,0,1.545-.713l2.706-4.713,5.682,3.276a31.209,31.209,0,0,0-6.907,7.966,11.615,11.615,0,0,0-6.007-1.658,11.807,11.807,0,1,0,2.028,23.431,30.571,30.571,0,0,0,1.155,4.333,1.526,1.526,0,0,0-.2.007,16.65,16.65,0,0,1-5.961,0ZM32.6,60.562l-4.169,4.169-2.088-2.087-2.087-2.087,4.175-4.174.091.091ZM11.733,85.6a1.477,1.477,0,0,1-2.088,0L3.383,79.341a1.475,1.475,0,0,1,0-2.086l2.087-2.087,8.35,8.349ZM27.387,69.949,15.907,81.43,7.558,73.08,19.038,61.6a1.512,1.512,0,0,1,2.087,0l6.262,6.262a1.479,1.479,0,0,1,0,2.087Zm8.361-10.416-.013-.02-5.126-5.126-1.137-1.141a1.469,1.469,0,0,1,0-2.075l2.435-2.436a31.242,31.242,0,0,0,8.335,8.351l-2.423,2.432a1.469,1.469,0,0,1-2.071.014Zm49.9-4.491V63.9H80.2a1.477,1.477,0,0,0-1.394.993,15.864,15.864,0,0,1-2.958,5.132,1.475,1.475,0,0,0-.157,1.7l2.724,4.715-7.665,4.423-2.716-4.708a1.475,1.475,0,0,0-1.545-.714,16.618,16.618,0,0,1-5.961,0,1.47,1.47,0,0,0-1.545.714l-2.706,4.713-7.666-4.433,2.716-4.709a1.476,1.476,0,0,0-.157-1.7,15.846,15.846,0,0,1-2.959-5.132,1.477,1.477,0,0,0-1.394-.993H41.37V60.134l1.461-1.466a30.773,30.773,0,0,0,9.125,3.213,11.789,11.789,0,1,0,23.074-4.841,31.142,31.142,0,0,0,3.754-3.046c.009.026.021.055.031.08a1.474,1.474,0,0,0,1.386.968Zm0,0" transform="translate(0 -0.434)"/><path class="a" d="M185.583,55.155c-.01.034,0,.068-.009.1a25.041,25.041,0,0,0,7.1,21.027c.315.314.652.589.978.883.009.012.024.019.033.03a25.071,25.071,0,1,0,32.267-38.336,1.459,1.459,0,0,0-.211-.155,25.02,25.02,0,0,0-40.146,16.431ZM208,80.529a12.52,12.52,0,0,1,15.869-4.437A22.117,22.117,0,0,1,208,80.529ZM226.24,74A15.492,15.492,0,0,0,204.9,79.954a21.948,21.948,0,0,1-8.158-4.017,25.006,25.006,0,0,1,2.315-3.234,1.471,1.471,0,0,0,.161-1.7l-4.194-7.282a.8.8,0,0,1,.288-1.095l11.844-6.842a.8.8,0,0,1,.613-.08.78.78,0,0,1,.478.374l4.191,7.277a1.489,1.489,0,0,0,1.543.715,26.433,26.433,0,0,1,9.51,0,1.479,1.479,0,0,0,1.542-.715l4.2-7.284a.77.77,0,0,1,.473-.367.8.8,0,0,1,.607.078l2.16,1.241A22.073,22.073,0,0,1,226.24,74Zm5.643-20.719-.113-.065a3.748,3.748,0,0,0-2.841-.363,3.7,3.7,0,0,0-2.266,1.751L222.981,61a29.119,29.119,0,0,0-8.5,0l-3.676-6.384a3.7,3.7,0,0,0-2.271-1.759,3.748,3.748,0,0,0-2.849.369L193.83,60.074a3.747,3.747,0,0,0-1.362,5.127l3.68,6.388a27.925,27.925,0,0,0-1.644,2.328,22.056,22.056,0,0,1-6.169-16.431l2.434.7a3.79,3.79,0,0,0,.938.119,3.741,3.741,0,0,0,3.616-2.815l1.853-7.131a29.461,29.461,0,0,0,4.181-.836,29.742,29.742,0,0,0,4-1.426l5.245,5.18a3.773,3.773,0,0,0,5.312-.023l9.148-9.274c.336.3.679.582,1,.9a21.973,21.973,0,0,1,5.818,10.4Zm-37.126-10.4a22.161,22.161,0,0,1,27.969-2.736l-8.9,9.018a.8.8,0,0,1-1.143.017l-5.977-5.9A1.479,1.479,0,0,0,205.033,43a26.907,26.907,0,0,1-4.464,1.679,26.608,26.608,0,0,1-4.7.853,1.476,1.476,0,0,0-1.3,1.1l-2.113,8.127a.782.782,0,0,1-.359.484.774.774,0,0,1-.559.1l-2.885-.835a22,22,0,0,1,6.1-11.62Zm0,0" transform="translate(-152.759 -27.641)"/></g></svg>