<svg xmlns="http://www.w3.org/2000/svg" width="87.937" height="88.552" viewBox="0 0 87.937 88.552"><defs><style>.a{fill:#010000;}</style></defs><g transform="translate(0)"><path class="a" d="M11.1,98.551H96.838a1.1,1.1,0,0,0,1.1-1.107V91.7a5.113,5.113,0,0,0-5.09-5.125H77.259a45.779,45.779,0,0,0,10.1-20.814c.243-1.218.433-2.451.59-3.678A7.816,7.816,0,0,0,91.569,60.8,7.938,7.938,0,0,0,87.53,46.228a45.812,45.812,0,0,0-3.736-11.522l4.458-3.318a4.183,4.183,0,0,0,1.1-5.458l2.067-1.559a4.288,4.288,0,0,0,.852-5.977L87.3,11.711a4.22,4.22,0,0,0-5.936-.858l-2.067,1.559a4.115,4.115,0,0,0-5.5-.48L35.715,40.265a4.173,4.173,0,0,0-1.568,4.251L28.917,48.6a1.112,1.112,0,0,0-.206,1.538l.794,1.068-1.6,1.38A5.176,5.176,0,0,0,26.876,59.8l2.566,3.45a5.077,5.077,0,0,0,3.368,2.012,5.067,5.067,0,0,0,3.85-1.021l1.549-1.332.743,1a1.1,1.1,0,0,0,.733.433,1.126,1.126,0,0,0,.147.01,1.094,1.094,0,0,0,.674-.232l5.211-4.071a4.141,4.141,0,0,0,1.371.465,4.2,4.2,0,0,0,.6.044,4.114,4.114,0,0,0,2.487-.836l31.807-23.67a43.591,43.591,0,0,1,3.344,10.389,7.9,7.9,0,0,0-5.895,6.168,7.969,7.969,0,0,0,6.2,9.373c.038.008.076.01.114.017-.147,1.111-.32,2.225-.539,3.327A44.239,44.239,0,0,1,74.383,86.576H44.332V81.525h3.556a1.1,1.1,0,0,0,1.1-1.107V75.841a4.839,4.839,0,0,0-4.816-4.85H17.72a4.839,4.839,0,0,0-4.817,4.85v4.577A1.1,1.1,0,0,0,14,81.525h3.967v5.051H15.09A5.113,5.113,0,0,0,10,91.7v5.743a1.1,1.1,0,0,0,1.1,1.107ZM82.677,12.624a2.035,2.035,0,0,1,2.859.413l4.972,6.685A2.065,2.065,0,0,1,90.1,22.6l-2.029,1.53-7.419-9.976ZM35.287,62.515a2.906,2.906,0,0,1-4.086-.591l-2.566-3.45a2.934,2.934,0,0,1-.553-2.18,2.979,2.979,0,0,1,1.194-1.979l1.549-1.332,6.064,8.153Zm4.754-.834-8.923-12,4.04-3.156,8.923,12Zm8.824-3.735a1.967,1.967,0,0,1-2.766-.4L36.636,44.822a2,2,0,0,1,.391-2.781L75.1,13.707a1.967,1.967,0,0,1,2.766.4l.363.488h0l9.1,12.235a2,2,0,0,1-.391,2.781Zm33.57-.585a5.773,5.773,0,0,1,1.588-7.97,5.637,5.637,0,0,1,3.152-.965,5.739,5.739,0,0,1,1.135.114,5.67,5.67,0,0,1,3.629,2.451,5.773,5.773,0,0,1-1.588,7.97,5.684,5.684,0,0,1-7.915-1.6ZM15.1,75.841A2.63,2.63,0,0,1,17.72,73.2H44.171a2.63,2.63,0,0,1,2.618,2.636v3.47H15.1Zm5.066,5.684H42.134v5.051H20.168ZM12.2,91.7A2.905,2.905,0,0,1,15.09,88.79H92.847A2.905,2.905,0,0,1,95.739,91.7v4.636H12.2Z" transform="translate(-10 -10)"/><path class="a" d="M67.473,21.231l-6.662,4.99a4.853,4.853,0,1,0,5.818,7.768L73.292,29a4.853,4.853,0,1,0-5.818-7.768Zm4.479,5.98L65.289,32.2a2.618,2.618,0,1,1-3.139-4.191l6.662-4.989a2.618,2.618,0,1,1,3.139,4.191Z" transform="translate(-5.35 -8.796)"/></g></svg>