<svg xmlns="http://www.w3.org/2000/svg" width="97.587" height="97.587" viewBox="0 0 97.587 97.587"><defs><style>.a{fill:#010000;}</style></defs><path class="a" d="M96.063,48.794H85.237a7.637,7.637,0,0,0-7.472-6.1h-3.05V23.817a3.431,3.431,0,0,0,1.525-2.851V9.53A3.435,3.435,0,0,0,72.809,6.1H64.423A3.435,3.435,0,0,0,60.992,9.53V20.966a3.431,3.431,0,0,0,1.525,2.851V42.695H54.893V17.718a3.431,3.431,0,0,0,1.525-2.851V3.431A3.435,3.435,0,0,0,52.987,0H44.6A3.435,3.435,0,0,0,41.17,3.431V14.867a3.431,3.431,0,0,0,1.525,2.851V42.695H35.07V23.817A3.431,3.431,0,0,0,36.6,20.966V9.53A3.435,3.435,0,0,0,33.164,6.1H24.778A3.435,3.435,0,0,0,21.347,9.53v4.193H24.4V9.53a.381.381,0,0,1,.381-.381h8.386a.381.381,0,0,1,.381.381V20.966a.381.381,0,0,1-.381.381H24.778a.381.381,0,0,1-.381-.381V16.773h-3.05v4.193a3.431,3.431,0,0,0,1.525,2.851V42.695h-3.05a7.637,7.637,0,0,0-7.472,6.1H1.525A1.525,1.525,0,0,0,0,50.319v6.1a1.525,1.525,0,0,0,1.525,1.525V94.157a3.435,3.435,0,0,0,3.431,3.431h8.768v-3.05H4.956a.381.381,0,0,1-.381-.381V57.943H93.013v9.149h3.05V57.943a1.525,1.525,0,0,0,1.525-1.525v-6.1A1.525,1.525,0,0,0,96.063,48.794ZM64.042,9.53a.381.381,0,0,1,.381-.381h8.386a.381.381,0,0,1,.381.381V20.966a.381.381,0,0,1-.381.381H64.423a.381.381,0,0,1-.381-.381Zm1.525,24.016V24.4h6.1v9.149Zm6.1,3.05v6.1h-6.1V36.6ZM44.219,3.431A.381.381,0,0,1,44.6,3.05h8.386a.381.381,0,0,1,.381.381V14.867a.381.381,0,0,1-.381.381H44.6a.381.381,0,0,1-.381-.381Zm1.525,19.441V18.3h6.1v4.574Zm6.1,3.05V42.695h-6.1V25.922ZM25.922,24.4h6.1v4.574h-6.1Zm0,7.624h6.1V42.695h-6.1Zm-6.1,13.723H77.765a4.582,4.582,0,0,1,4.313,3.05H15.509a4.582,4.582,0,0,1,4.313-3.05Zm74.715,9.149H3.05v-3.05H94.538Z" transform="translate(0 0)"/><path class="a" d="M167.29,392.016V368h-3.05v24.016a.381.381,0,0,1-.381.381H88v3.05h75.859a3.435,3.435,0,0,0,3.431-3.431Z" transform="translate(-71.227 -297.859)"/><path class="a" d="M75.07,320H43.431A3.435,3.435,0,0,0,40,323.431v23.634a3.435,3.435,0,0,0,3.431,3.431h75.478a3.435,3.435,0,0,0,3.431-3.431V323.431A3.435,3.435,0,0,0,118.909,320H78.12v3.05h40.788a.381.381,0,0,1,.381.381v23.634a.381.381,0,0,1-.381.381H43.431a.381.381,0,0,1-.381-.381V323.431a.381.381,0,0,1,.381-.381H75.07Z" transform="translate(-32.376 -259.008)"/><path class="a" d="M254.867,380.2a3.435,3.435,0,0,0,3.431-3.431v-5.337A3.435,3.435,0,0,0,254.867,368H243.431A3.435,3.435,0,0,0,240,371.431v5.337a3.435,3.435,0,0,0,3.431,3.431Zm-11.817-3.431v-5.337a.381.381,0,0,1,.381-.381h11.436a.381.381,0,0,1,.381.381v5.337a.381.381,0,0,1-.381.381H243.431A.381.381,0,0,1,243.05,376.768Z" transform="translate(-194.256 -297.859)"/><path class="a" d="M83.431,368A3.435,3.435,0,0,0,80,371.431v5.337a3.435,3.435,0,0,0,3.431,3.431h20.585a3.435,3.435,0,0,0,3.431-3.431v-5.337A3.435,3.435,0,0,0,104.016,368Zm20.966,3.431v5.337a.381.381,0,0,1-.381.381H83.431a.381.381,0,0,1-.381-.381v-5.337a.381.381,0,0,1,.381-.381h20.585A.381.381,0,0,1,104.4,371.431Z" transform="translate(-64.752 -297.859)"/><path class="a" d="M360,416h3.05v3.05H360Z" transform="translate(-291.384 -336.71)"/><path class="a" d="M392,416h3.05v3.05H392Z" transform="translate(-317.285 -336.71)"/><path class="a" d="M424,416h3.05v3.05H424Z" transform="translate(-343.185 -336.71)"/><path class="a" d="M360,368h3.05v6.1H360Z" transform="translate(-291.384 -297.857)"/><path class="a" d="M392,368h3.05v6.1H392Z" transform="translate(-317.285 -297.857)"/><path class="a" d="M424,368h3.05v6.1H424Z" transform="translate(-343.185 -297.857)"/></svg>