<svg xmlns="http://www.w3.org/2000/svg" width="97.587" height="97.587" viewBox="0 0 97.587 97.587"><defs><style>.a{fill:#010000;}</style></defs><path class="a" d="M24.983,93.677A28.982,28.982,0,0,1,23.5,37.869a1.525,1.525,0,0,0,1.077-1.458V11.575h14.16V36.2a1.525,1.525,0,0,0,1.114,1.468,28.764,28.764,0,0,1,9.344,4.565A1.525,1.525,0,0,0,51,39.776a31.8,31.8,0,0,0-9.217-4.714V11.519A5.787,5.787,0,0,0,40.992,0H23.05a5.787,5.787,0,0,0-1.525,11.369V35.306A32.32,32.32,0,0,0,6.394,46.365,32.028,32.028,0,0,0,6.9,85.425,32.185,32.185,0,0,0,24.245,96.636a1.525,1.525,0,1,0,.738-2.959Zm-4.67-87.89A2.741,2.741,0,0,1,23.05,3.05H40.992a2.738,2.738,0,0,1,0,5.475H23.05a2.741,2.741,0,0,1-2.738-2.738ZM96.479,88.08,71.342,52.163V20.1h.146a5.787,5.787,0,0,0,0-11.575H53.546a5.787,5.787,0,0,0-.4,11.559l0,32.076L28.008,88.08a6.042,6.042,0,0,0,4.95,9.507h58.57a6.042,6.042,0,0,0,4.95-9.507ZM50.809,14.312a2.741,2.741,0,0,1,2.738-2.738H71.488a2.738,2.738,0,0,1,0,5.475H53.546A2.741,2.741,0,0,1,50.809,14.312ZM94.183,92.927a2.909,2.909,0,0,1-2.655,1.611H32.958a2.993,2.993,0,0,1-2.452-4.709L55.921,53.515a1.525,1.525,0,0,0,.276-.874l0-32.541h12.1V52.644a1.525,1.525,0,0,0,.276.874L93.981,89.829A2.908,2.908,0,0,1,94.183,92.927ZM20.176,45.047a1.525,1.525,0,0,1-.422,2.115A22.086,22.086,0,0,0,9.911,65.567a1.525,1.525,0,0,1-3.05,0,25.13,25.13,0,0,1,11.2-20.942A1.525,1.525,0,0,1,20.176,45.047ZM82.161,79.588a1.525,1.525,0,1,1-2.5,1.748L68.932,66a1.525,1.525,0,1,1,2.5-1.749Z" transform="translate(0 0)"/></svg>