<svg xmlns="http://www.w3.org/2000/svg" width="89.508" height="97.134" viewBox="0 0 89.508 97.134"><defs><style>.a{fill:#010000;}</style></defs><g transform="translate(0)"><path class="a" d="M83.515,49.005c6.815-8.56,9.349-16.862,6.071-22.675a11.109,11.109,0,0,0-3.809-3.885,3.035,3.035,0,0,1,0,.516,8.514,8.514,0,0,1-.9,2.5,7.968,7.968,0,0,1,2.14,2.383c2.626,4.553.288,11.5-5.494,18.85A89.7,89.7,0,0,0,68.035,35.376a86.508,86.508,0,0,0-2.4-11.823c4.31-.789,2,.653,2.6-3.491q-1.7.2-3.506.546C60.628,8.589,54.223,1,46.847,1,39.775,1,33.582,8.027,29.591,19.213c-8.15-1.078-18.3-.926-22.386,6.071a10.912,10.912,0,0,0-1.518,5.236l.5-.2a8.18,8.18,0,0,1,2.641-.486A8.165,8.165,0,0,1,9.845,26.8c3.2-5.57,12.369-5.524,18.774-4.72a85.781,85.781,0,0,0-3.233,16.862,89.543,89.543,0,0,0-9.106,7.922L15.1,45.348a8.985,8.985,0,0,1-1.685,1.169,6.3,6.3,0,0,1-.911.44c.531.7,1.093,1.4,1.669,2.094a58.112,58.112,0,0,0-3.976,4.766C4.048,62.133,2.333,69.616,5.383,74.9c4.356,7.589,15.951,7.391,24.481,5.813,3.992,10.7,10.062,17.423,16.983,17.423A10.973,10.973,0,0,0,52.1,96.768l-.395-.319a9.106,9.106,0,0,1-1.73-2.019,7.938,7.938,0,0,1-3.126.668c-5.449,0-10.442-5.858-13.933-15.041A87.891,87.891,0,0,0,49.61,74.245,89.2,89.2,0,0,0,61.4,78.4c-.349,1-.713,1.973-1.108,2.9A8.727,8.727,0,0,1,63,82.82q.728-1.73,1.366-3.6c9.243,2.019,22.234,2.9,26.97-5.282C94.974,67.536,91.68,58.309,83.515,49.005ZM79.4,49.1A79.044,79.044,0,0,1,68.368,59.341a106.118,106.118,0,0,0,0-19.882A84.992,84.992,0,0,1,79.4,49.1ZM64.438,33.069a102.947,102.947,0,0,0-11-6.071,77.645,77.645,0,0,1,9.106-2.747,83.35,83.35,0,0,1,1.9,8.818ZM46.847,4.035c5.858,0,11.2,6.8,14.707,17.241a82.805,82.805,0,0,0-11.975,3.885,84.02,84.02,0,0,0-16.907-5.479C36.193,10.106,41.277,4.035,46.847,4.035ZM31.67,22.582A76.112,76.112,0,0,1,45.724,26.8a109.656,109.656,0,0,0-16.983,9.668A83.838,83.838,0,0,1,31.7,22.582Zm-6.6,20.459a108.849,108.849,0,0,0,0,12.6,79.559,79.559,0,0,1-6.784-6.481,81.957,81.957,0,0,1,6.784-6.116ZM8.024,73.395c-2.383-4.113-.7-10.624,4.553-17.757,1.062-1.427,2.277-2.838,3.551-4.265a81.515,81.515,0,0,0,9.106,8.454A86.039,86.039,0,0,0,28.862,77.8C21.911,78.965,11.485,79.39,8.024,73.38Zm23.889,3.794a81.606,81.606,0,0,1-3.2-14.813,105.906,105.906,0,0,0,17.135,10.2,81.715,81.715,0,0,1-13.933,4.6ZM62.267,75.52a81.261,81.261,0,0,1-9.106-3.035A106.242,106.242,0,0,0,64.453,65.9,81.579,81.579,0,0,1,62.328,75.5ZM49.443,70.967A103.2,103.2,0,0,1,28.195,58.309a102.717,102.717,0,0,1,0-17.681A101.686,101.686,0,0,1,49.443,28.486a99.441,99.441,0,0,1,15.465,8.636,104.085,104.085,0,0,1,0,24.678,103.387,103.387,0,0,1-15.329,9.106Zm39.263,1.366c-3.825,6.6-15.921,5.494-23.433,3.885a85.673,85.673,0,0,0,2.641-12.7A83.61,83.61,0,0,0,81.573,51.373C88.524,59.508,91.574,67.339,88.706,72.332Z" transform="translate(-3.298 -1)"/><path class="a" d="M44.678,35.146a7.664,7.664,0,1,0-14.084,0,7.589,7.589,0,1,0,7.057,12.142,7.589,7.589,0,0,0,6.071,3.035,7.6,7.6,0,0,0,.911-15.177Z" transform="translate(7.128 11.144)"/><path class="a" d="M44.284,56.465a5.858,5.858,0,0,0-8.924,4.993,5.8,5.8,0,0,0,2.064,4.432A5.737,5.737,0,0,0,41.234,67.3a5.858,5.858,0,0,0,5.843-5.843,5.8,5.8,0,0,0-2.793-4.993Z" transform="translate(12.985 27.267)"/><path class="a" d="M12.178,32.992a5.858,5.858,0,1,0-5.111.25,5.858,5.858,0,0,0,5.111-.25Z" transform="translate(-3.506 9.868)"/><path class="a" d="M53.994,22.232a5.782,5.782,0,0,0,2.9-.789,5.874,5.874,0,0,0,2.823-3.976,5.752,5.752,0,0,0-.683-4.022,5.836,5.836,0,1,0-5.039,8.788Z" transform="translate(19.606 3.934)"/></g></svg>