<svg xmlns="http://www.w3.org/2000/svg" width="86.489" height="97.134" viewBox="0 0 86.489 97.134"><defs><style>.a{fill:#010000;}</style></defs><path class="a" d="M158.418,437.686H87.707a.855.855,0,0,1,0-1.711h39.538a3.707,3.707,0,0,0,0-7.413H87.707a.855.855,0,0,1,0-1.711h19.818a1.426,1.426,0,1,0,0-2.851H87.707a3.707,3.707,0,1,0,0,7.413h39.538a.855.855,0,0,1,0,1.711H87.707a3.707,3.707,0,0,0,0,7.413h70.712a1.426,1.426,0,1,0,0-2.851Z" transform="translate(-73.355 -343.404)"/><path class="a" d="M38.645,62.253A16.651,16.651,0,0,0,55.277,78.885H81.889a.855.855,0,1,1,0,1.711h-12.8a1.426,1.426,0,1,0,0,2.851h12.8a3.707,3.707,0,0,0,0-7.413H55.277a13.8,13.8,0,0,1-13.528-11.16,36.448,36.448,0,1,0-3.1-2.775ZM64.4,2.851A33.55,33.55,0,1,1,30.851,36.4,33.588,33.588,0,0,1,64.4,2.851Z" transform="translate(-28)"/><path class="a" d="M200.467,40.934A4.467,4.467,0,1,0,196,36.467,4.472,4.472,0,0,0,200.467,40.934Zm0-6.083a1.616,1.616,0,1,1-1.616,1.616A1.618,1.618,0,0,1,200.467,34.851Z" transform="translate(-164.066 -25.917)"/><path class="a" d="M318.257,108.925a4.467,4.467,0,1,0-2.241-8.335h0a4.466,4.466,0,0,0,2.241,8.335Zm-.815-5.865a1.616,1.616,0,1,1-.591,2.207A1.618,1.618,0,0,1,317.441,103.06Z" transform="translate(-259.46 -80.984)"/><path class="a" d="M266.226,58.559a4.467,4.467,0,1,0-2.081-2.712A4.438,4.438,0,0,0,266.226,58.559Zm.834-4.676a1.616,1.616,0,1,1-.162,1.226A1.617,1.617,0,0,1,267.06,53.883Z" transform="translate(-219.132 -40.678)"/><path class="a" d="M332,172.467A4.467,4.467,0,1,0,336.467,168,4.472,4.472,0,0,0,332,172.467Zm6.083,0a1.616,1.616,0,1,1-1.616-1.616A1.618,1.618,0,0,1,338.083,172.467Z" transform="translate(-274.214 -136.066)"/><path class="a" d="M200.467,304a4.467,4.467,0,1,0,4.467,4.467A4.472,4.472,0,0,0,200.467,304Zm0,6.083a1.616,1.616,0,1,1,1.616-1.616A1.618,1.618,0,0,1,200.467,310.083Z" transform="translate(-164.066 -246.214)"/><path class="a" d="M132.466,59.157a4.466,4.466,0,1,0-3.876-2.233A4.438,4.438,0,0,0,132.466,59.157ZM130.9,54.273a1.616,1.616,0,1,1,.161,1.226A1.605,1.605,0,0,1,130.9,54.273Z" transform="translate(-108.983 -40.678)"/><path class="a" d="M134.7,286.382a4.467,4.467,0,1,0,1.635,6.1,4.472,4.472,0,0,0-1.635-6.1Zm-.834,4.676a1.615,1.615,0,1,1-.592-2.207A1.6,1.6,0,0,1,133.87,291.058Z" transform="translate(-108.995 -231.461)"/><path class="a" d="M320.483,236.6a4.467,4.467,0,1,0,1.635,6.1A4.473,4.473,0,0,0,320.483,236.6Zm-.834,4.676h0a1.615,1.615,0,1,1,.162-1.226A1.6,1.6,0,0,1,319.649,241.279Z" transform="translate(-259.46 -191.144)"/><path class="a" d="M68.934,172.467a4.467,4.467,0,1,0-4.467,4.467A4.472,4.472,0,0,0,68.934,172.467Zm-6.083,0a1.616,1.616,0,1,1,1.616,1.616A1.618,1.618,0,0,1,62.851,172.467Z" transform="translate(-53.917 -136.066)"/><path class="a" d="M80.446,108.34a4.467,4.467,0,1,0-2.081-2.712A4.438,4.438,0,0,0,80.446,108.34Zm.834-4.676a1.616,1.616,0,1,1-.161,1.226A1.617,1.617,0,0,1,81.28,103.663Z" transform="translate(-68.666 -80.996)"/><path class="a" d="M266.238,286.382a4.467,4.467,0,1,0,6.1,1.635A4.472,4.472,0,0,0,266.238,286.382Zm3.041,5.268a1.615,1.615,0,1,1,.591-2.207A1.6,1.6,0,0,1,269.279,291.65Z" transform="translate(-219.144 -231.461)"/><path class="a" d="M84.925,244.339a4.47,4.47,0,1,0-2.226.6,4.472,4.472,0,0,0,2.226-.6Zm-3.633-3.061a1.616,1.616,0,1,1,2.207.591,1.618,1.618,0,0,1-2.207-.591Z" transform="translate(-68.678 -191.143)"/><path class="a" d="M142.153,132.306A18.153,18.153,0,1,0,124,114.153,18.174,18.174,0,0,0,142.153,132.306Zm0-33.455a15.3,15.3,0,1,1-15.3,15.3A15.319,15.319,0,0,1,142.153,98.851Z" transform="translate(-105.752 -77.752)"/><path class="a" d="M174.55,157.1A10.55,10.55,0,1,0,164,146.55,10.562,10.562,0,0,0,174.55,157.1Zm-7.7-10.55a7.693,7.693,0,1,1,.157,1.55A7.709,7.709,0,0,1,166.851,146.55Z" transform="translate(-138.148 -110.148)"/></svg>