<svg xmlns="http://www.w3.org/2000/svg" width="100.458" height="97.134" viewBox="0 0 100.458 97.134"><defs><style>.a{fill:#010000;}</style></defs><g transform="translate(7.568 7.568)"><g transform="translate(0 0)"><path class="a" d="M78.863,53.957c-.13-.131-.262-.259-.4-.385a1.487,1.487,0,0,0-.141-.117,23.586,23.586,0,0,0-27.734-3.378,1.471,1.471,0,1,0,1.446,2.562,20.649,20.649,0,0,1,23.27,2.071c-1.035,1.068-1.787,1.909-2.158,2.332l-6.935,2.549a1.467,1.467,0,0,0-.308.157L57.874,65.1l-8.029,4.245a1.471,1.471,0,0,0-.687,1.825l3.107,8.14a1.471,1.471,0,0,0,1.151.929l15.045,2.312a1.491,1.491,0,0,0,.225.017,1.471,1.471,0,0,0,.222-2.925l-14.2-2.182-2.338-6.125,6.944-3.672a1.481,1.481,0,0,0,.128-.076l7.95-5.3,7.128-2.62a1.474,1.474,0,0,0,.615-.43c.011-.013.886-1.043,2.3-2.5a20.644,20.644,0,0,1,4.466,20.035l0,.014q-.157.5-.338.992l-7.286,1.036a1.471,1.471,0,1,0,.414,2.912l5.374-.764a20.657,20.657,0,1,1-32.5-24.927,1.471,1.471,0,1,0-2.08-2.08A23.6,23.6,0,1,0,83.948,79.75c.012-.025.026-.048.036-.074.049-.119.093-.238.14-.357l.029-.074q.192-.491.362-.986l.021-.059c.054-.159.105-.318.155-.477l.055-.177A23.53,23.53,0,0,0,78.863,53.957Z" transform="translate(-38.573 -47.044)"/></g></g><g transform="translate(0 0)"><path class="a" d="M98.987,66.058H93.856l-2.243-2.428a12.428,12.428,0,0,0-9.1-3.985H63.263L58.4,54.785a31,31,0,0,0,2.693-6.43l6.3,2.832a1.473,1.473,0,0,0,.578.129c5,.086,8.436.117,10.806.117,4.844,0,5.236-.131,5.422-.192.749-.249,1.24-.64,3.4-6.231,1-2.592,1.916-5.186,1.925-5.212a1.471,1.471,0,0,0-.245-1.417L79.685,26.56a1.469,1.469,0,0,0-.415-.352c-.569-.323-14.024-7.911-21.229-7.6a10.84,10.84,0,0,0-3.262.71A31.163,31.163,0,1,0,27.561,70.6a5.82,5.82,0,0,0,4.936,8.9H42.3a5.815,5.815,0,0,0,2.813,8.252A5.814,5.814,0,0,0,47.743,96.5a5.82,5.82,0,0,0,4.8,9.108h3.63c.157,0,.313-.008.467-.02h8.722a1.466,1.466,0,0,0,.156-.008h5.7a1.471,1.471,0,0,0,0-2.942H65.364a1.47,1.47,0,0,0-.156.008H61.256a5.8,5.8,0,0,0,.659-1.885c.007-.044.015-.087.021-.131s.015-.111.021-.167.014-.135.02-.2c0-.043.007-.085.01-.128.007-.114.011-.229.011-.345s0-.211-.009-.315c0-.028,0-.056-.006-.084-.005-.077-.011-.153-.019-.229,0-.029-.007-.057-.011-.086-.009-.076-.019-.151-.032-.226,0-.025-.009-.05-.013-.075-.014-.079-.029-.159-.047-.237l-.013-.056q-.03-.129-.065-.256l-.009-.03a5.832,5.832,0,0,0-1.789-2.8A5.791,5.791,0,0,0,61.8,91.975l0-.021c.013-.088.025-.176.034-.265,0-.037.006-.074.009-.111.005-.062.011-.123.014-.185q.008-.152.008-.306c0-.1,0-.208-.008-.311,0-.035-.005-.068-.008-.1,0-.068-.01-.137-.017-.2,0-.041-.01-.081-.016-.122-.008-.06-.015-.121-.025-.181-.007-.043-.015-.086-.023-.129s-.021-.113-.032-.168-.02-.088-.03-.131-.026-.108-.04-.161-.025-.087-.037-.131-.031-.1-.048-.155-.029-.087-.044-.129-.036-.1-.055-.15-.033-.085-.05-.127-.041-.1-.063-.147-.037-.083-.056-.124-.047-.1-.07-.143-.04-.08-.061-.119-.052-.094-.079-.141-.043-.077-.066-.114-.059-.094-.089-.141-.044-.071-.067-.105c-.034-.051-.07-.1-.105-.15-.021-.029-.041-.059-.063-.088q-.08-.107-.164-.21l-.031-.038q-.085-.1-.174-.2c-.023-.025-.046-.048-.069-.072-.044-.046-.088-.093-.133-.138-.027-.027-.055-.052-.083-.079-.043-.041-.086-.082-.13-.121l-.022-.021.022-.02c.044-.04.088-.081.13-.122l.082-.078c.046-.045.09-.092.134-.139.023-.024.046-.047.068-.071q.089-.1.174-.2l.031-.037c.056-.069.111-.139.165-.21.021-.029.041-.058.062-.088.036-.05.071-.1.106-.15.023-.035.045-.07.067-.105s.06-.093.089-.141.044-.076.066-.114.053-.094.079-.141.041-.079.061-.119.048-.095.07-.143.038-.083.056-.124.043-.1.063-.146.034-.085.05-.127.037-.1.055-.15.03-.086.044-.13.032-.1.048-.155.026-.087.037-.131.027-.107.04-.16.021-.088.03-.132.022-.112.032-.168.016-.086.023-.129c.01-.06.017-.12.025-.18.005-.041.011-.081.016-.122.007-.067.012-.136.017-.2,0-.034.006-.068.008-.1q.008-.155.008-.311a5.828,5.828,0,0,0-5.822-5.822H32.5a2.88,2.88,0,0,1,0-5.76H50.238l.977.978a1.46,1.46,0,0,0,.112.1,1.473,1.473,0,0,0,1.613.162,1.447,1.447,0,0,0,.244-.162,1.5,1.5,0,0,0,.112-.1l.691-.691L66.5,83.594a6.1,6.1,0,0,0,8.629,0q.219-.219.411-.454c4.241,3.7,11.041,4.014,13.206,4.014a1.471,1.471,0,0,0,0-2.942c-3.917,0-9.276-1.037-11.918-3.921a6.1,6.1,0,0,0-1.7-5.326l-4.117-4.117h3.966a1.471,1.471,0,1,0,0-2.942H68.066l-5.324-5.324H82.508a9.478,9.478,0,0,1,6.944,3.039l2.68,2.9A1.472,1.472,0,0,0,93.212,69h4.3V96.012h-4.3a1.471,1.471,0,0,0-.926.328l-4.009,3.246a13.732,13.732,0,0,1-8.613,3.049H77.159a1.471,1.471,0,1,0,0,2.942h2.506a16.683,16.683,0,0,0,10.464-3.7l3.6-2.918h5.254a1.471,1.471,0,0,0,1.471-1.471V67.529A1.472,1.472,0,0,0,98.987,66.058ZM59.05,99.674c0,.037.006.074.006.111a2.865,2.865,0,0,1-.015.289c0,.015,0,.029-.006.044-.009.082-.021.163-.037.242,0,.007,0,.014,0,.021a2.891,2.891,0,0,1-1.952,2.15l-.012,0c-.07.022-.142.039-.214.055-.024.005-.047.012-.071.017-.05.01-.1.016-.153.023s-.089.015-.135.019c-.092.009-.186.014-.28.014h-3.63a2.878,2.878,0,0,1-.1-5.755h3.6c.051,0,.1,0,.152,0l.044,0c.083,0,.165.006.246.015l.024,0a2.891,2.891,0,0,1,2.527,2.567C59.047,99.552,59.048,99.613,59.05,99.674Zm-.137-8.292v.006a2.887,2.887,0,0,1-1.737,2.35l-.028.011q-.107.044-.218.08l-.09.026c-.055.016-.11.03-.167.043s-.095.018-.142.026-.084.014-.127.019c-.058.007-.116.012-.175.015l-.08,0h-3.6c-.067,0-.134,0-.2.005H49.888a2.88,2.88,0,0,1,0-5.76h6.159a2.883,2.883,0,0,1,2.88,2.88A2.746,2.746,0,0,1,58.913,91.381ZM47.36,79.506h8.687a2.88,2.88,0,1,1,0,5.76H47.36a2.88,2.88,0,0,1,0-5.76ZM58.169,21.545c5.894-.258,17.6,6.084,19.411,7.089l8.9,10.961c-1.295,3.616-2.835,7.567-3.519,8.851-1.933.086-8.591.036-14.628-.066L61.8,45.444v-.005a31.231,31.231,0,0,0,.008-11.55l-.01-.05q-.064-.341-.136-.68l-.009-.045c-.007-.032-.015-.064-.022-.1-.043-.2-.088-.4-.135-.6-.016-.067-.033-.133-.049-.2-.045-.181-.09-.362-.138-.542-.02-.076-.041-.152-.062-.228-.047-.171-.094-.342-.144-.512-.024-.082-.049-.164-.074-.246-.049-.162-.1-.324-.15-.485-.029-.09-.058-.181-.088-.27q-.074-.225-.151-.449c-.036-.1-.072-.207-.109-.309q-.071-.2-.143-.394c-.046-.124-.094-.248-.141-.371-.041-.1-.081-.209-.123-.313q-.092-.23-.187-.458l-.087-.206q-.122-.287-.25-.571l-.031-.069a31.243,31.243,0,0,0-2.853-5.018A6.861,6.861,0,0,1,58.169,21.545Zm-27,46.325A28.22,28.22,0,1,1,58.915,44.842v0c-.045.241-.094.481-.145.721q-.02.092-.04.183c-.039.177-.08.353-.123.53A28.276,28.276,0,0,1,31.17,67.87ZM44.4,67.862q.977-.46,1.916-.984l.984.984Zm8.551.108,0,0-.689.689-.368-.368h0l-3-3a31.341,31.341,0,0,0,4.323-3.608h0a31.368,31.368,0,0,0,3.608-4.323l3.37,3.37-.172.172-.52.52Zm13.468,2.45,0,0,6.626,6.626a3.16,3.16,0,1,1-4.469,4.469L56.068,69.01l4.469-4.469Z" transform="translate(0 -8.473)"/></g></svg>