<svg xmlns="http://www.w3.org/2000/svg" width="67.989" height="97.134" viewBox="0 0 67.989 97.134"><defs><style>.a{fill:#010000;}</style></defs><g transform="translate(0)"><g transform="translate(0 0)"><path class="a" d="M150.867,53.777a1.619,1.619,0,1,0-1.208-3,24.383,24.383,0,0,0-14.671,17.345,1.619,1.619,0,0,0,1.238,1.926,1.69,1.69,0,0,0,.345.036,1.619,1.619,0,0,0,1.582-1.274A21.134,21.134,0,0,1,150.867,53.777Z" transform="translate(-127.957 -42.561)"/><path class="a" d="M150.991,12.918a29.7,29.7,0,0,0-2.253-2.477,33.034,33.034,0,0,0-2.512-2.284,3.71,3.71,0,0,0-4.46-.055l-2.844,2.033a29.472,29.472,0,0,0-8.205-3.4L130.153,3.3A3.723,3.723,0,0,0,126.915.185,32.9,32.9,0,0,0,123.563,0h-1.619A30.742,30.742,0,0,0,98.5,50.646a29.765,29.765,0,0,1,7.194,17.666,4.83,4.83,0,0,0-.908,8.633,4.783,4.783,0,0,0,1.619,6.475,4.8,4.8,0,0,0-.649,2.375,4.856,4.856,0,0,0,4.856,4.856h.656a12.039,12.039,0,0,0,21.36,0h.648a4.856,4.856,0,0,0,4.856-4.856,4.8,4.8,0,0,0-.648-2.381,4.783,4.783,0,0,0,1.619-6.475,4.847,4.847,0,0,0-2.59-8.95h-6.373a.368.368,0,0,1,.013-.053l.563-3.437a29.5,29.5,0,0,0,8.205-3.4l2.836,2.03a3.723,3.723,0,0,0,4.518-.1c.95-.8,1.734-1.51,2.464-2.24.835-.839,1.595-1.672,2.281-2.512a3.723,3.723,0,0,0,.062-4.466l-2.036-2.842a29.437,29.437,0,0,0,3.408-8.2l3.435-.563A3.734,3.734,0,0,0,159,38.967a32.607,32.607,0,0,0,.173-3.354,32.265,32.265,0,0,0-.181-3.369,3.723,3.723,0,0,0-3.11-3.221l-3.437-.562a29.419,29.419,0,0,0-3.408-8.205l2.041-2.838a3.733,3.733,0,0,0-.09-4.5ZM123.563,24.282a11.331,11.331,0,1,1,0,22.663Zm0,25.9a14.569,14.569,0,0,0,0-29.138V16.188a19.425,19.425,0,1,1,0,38.85ZM94.425,30.757a27.519,27.519,0,0,1,25.9-27.474V67.988H108.918a33.039,33.039,0,0,0-7.951-19.44,27.436,27.436,0,0,1-6.541-17.792ZM136.513,79.32a1.619,1.619,0,0,1-1.619,1.619h-25.9a1.619,1.619,0,1,1,0-3.238h25.9A1.619,1.619,0,0,1,136.513,79.32ZM121.944,93.889a8.95,8.95,0,0,1-6.8-3.238h13.6A8.949,8.949,0,0,1,121.944,93.889Zm11.331-6.475H110.612a1.619,1.619,0,0,1,0-3.238h22.663a1.619,1.619,0,1,1,0,3.238Zm4.856-14.569a1.619,1.619,0,0,1-1.619,1.619H107.375a1.619,1.619,0,1,1,0-3.238h29.138A1.619,1.619,0,0,1,138.131,72.845ZM149.524,30.21a1.619,1.619,0,0,0,1.324,1.269l4.515.74a.486.486,0,0,1,.411.374,28.073,28.073,0,0,1,0,6.022.5.5,0,0,1-.416.4l-4.515.74a1.619,1.619,0,0,0-1.323,1.269,26.246,26.246,0,0,1-3.782,9.123,1.619,1.619,0,0,0,.037,1.831l2.686,3.747a.485.485,0,0,1,.024.541c-.592.724-1.277,1.476-2.036,2.237-.662.66-1.379,1.313-2.2,2.009a.486.486,0,0,1-.6-.013l-3.723-2.666a1.619,1.619,0,0,0-1.829-.037,26.306,26.306,0,0,1-9.125,3.786A1.619,1.619,0,0,0,127.7,62.9l-.74,4.515a.485.485,0,0,1-.372.413,29.7,29.7,0,0,1-3.027.162V58.276a22.663,22.663,0,1,0,0-45.326V3.238a29.494,29.494,0,0,1,3,.162.486.486,0,0,1,.392.416l.74,4.515a1.619,1.619,0,0,0,1.271,1.323,26.275,26.275,0,0,1,9.123,3.783,1.619,1.619,0,0,0,1.829-.037l3.723-2.673a.486.486,0,0,1,.56-.036,29.972,29.972,0,0,1,2.25,2.051,26.5,26.5,0,0,1,2.009,2.2.5.5,0,0,1-.027.579l-2.668,3.723a1.619,1.619,0,0,0-.037,1.829,26.255,26.255,0,0,1,3.794,9.132Z" transform="translate(-91.187 0)"/></g></g></svg>