<svg xmlns="http://www.w3.org/2000/svg" width="88.6" height="88.552" viewBox="0 0 88.6 88.552"><defs><style>.a{fill:#010000;}</style></defs><g transform="translate(0)"><g transform="translate(59.304 54.268)"><path class="a" d="M47.634,46.579a1.769,1.769,0,0,1-1.254-.52l-5.373-5.373a1.774,1.774,0,0,1,2.508-2.508l5.373,5.373a1.774,1.774,0,0,1-1.254,3.028Z" transform="translate(-40.486 -37.658)"/></g><g transform="translate(54.287 59.284)"><path class="a" d="M44.806,49.407a1.769,1.769,0,0,1-1.254-.52l-5.373-5.373a1.774,1.774,0,0,1,2.508-2.508l5.373,5.373a1.774,1.774,0,0,1-1.254,3.028Z" transform="translate(-37.658 -40.486)"/></g><g transform="translate(7.097 7.002)"><path class="a" d="M37.7,64.185h0A26.9,26.9,0,0,1,16.328,53.632a26.23,26.23,0,0,1-4.046-23.773A26.257,26.257,0,0,1,28.966,12.412a25.88,25.88,0,0,1,8.382-1.4c14.541,0,26.828,12.173,26.828,26.585A26.951,26.951,0,0,1,46.168,62.787a26.145,26.145,0,0,1-8.464,1.4Zm-.358-49.623a22.381,22.381,0,0,0-7.236,1.206A22.749,22.749,0,0,0,15.672,30.9a22.719,22.719,0,0,0,3.484,20.6A23.327,23.327,0,0,0,37.7,60.637h0a22.592,22.592,0,0,0,7.318-1.208A23.357,23.357,0,0,0,60.628,37.6C60.628,25.11,49.966,14.562,37.346,14.562Z" transform="translate(-11.056 -11.014)"/></g><g transform="translate(2.012 67.536)"><path class="a" d="M17.06,62.877a8.87,8.87,0,0,1,0-17.74,8.87,8.87,0,0,1,0,17.74Zm0-14.192a5.322,5.322,0,1,0,5.322,5.322A5.394,5.394,0,0,0,17.06,48.685Z" transform="translate(-8.19 -45.137)"/></g><g transform="translate(12.434 60.019)"><path class="a" d="M15.838,52.793a1.775,1.775,0,0,1-1.566-2.606L18.7,41.842A1.774,1.774,0,1,1,21.834,43.5l-4.428,8.345A1.769,1.769,0,0,1,15.838,52.793Z" transform="translate(-14.065 -40.9)"/></g><g transform="translate(8.612 9.909)"><path class="a" d="M13.684,16.178a1.769,1.769,0,0,1-1.242-3.033,1.835,1.835,0,0,1,2.5,0,1.774,1.774,0,0,1-1.26,3.033Z" transform="translate(-11.91 -12.653)"/></g><g transform="translate(14.02)"><path class="a" d="M61.575,59.424a1.773,1.773,0,0,1-1.5-2.718,30.425,30.425,0,0,0-2.515-35.554,30.513,30.513,0,0,0-39.838-5.528,1.774,1.774,0,0,1-1.98-2.945,34.1,34.1,0,0,1,44.523,6.179A34.005,34.005,0,0,1,63.08,58.594a1.77,1.77,0,0,1-1.5.83Z" transform="translate(-14.959 -7.067)"/></g><g transform="translate(72.938 72.916)"><path class="a" d="M54.963,63.806a8.8,8.8,0,0,1-6.273-2.57,1.775,1.775,0,0,1,2.51-2.51,5.515,5.515,0,0,0,7.523,0,5.387,5.387,0,0,0,0-7.525,1.775,1.775,0,1,1,2.51-2.51,8.843,8.843,0,0,1-6.273,15.116Z" transform="translate(-48.172 -48.17)"/></g><g transform="translate(67.188 77.231)"><path class="a" d="M46.7,54.128a1.787,1.787,0,0,1-1.774-1.774,1.8,1.8,0,0,1,.514-1.26,1.774,1.774,0,0,1,3.033,1.26,1.822,1.822,0,0,1-.514,1.242A1.8,1.8,0,0,1,46.7,54.128Z" transform="translate(-44.93 -50.603)"/></g><g transform="translate(72.202 82.219)"><path class="a" d="M50.267,57.7a1.778,1.778,0,0,1-1.254-.518l-.736-.734a1.774,1.774,0,1,1,2.507-2.51l.736.734A1.773,1.773,0,0,1,50.267,57.7Z" transform="translate(-47.757 -53.414)"/></g><g transform="translate(58.624 64.656)"><path class="a" d="M42.913,52.081a1.769,1.769,0,0,1-1.254-.52,5.328,5.328,0,0,1,0-7.527,1.774,1.774,0,0,1,2.508,2.508,1.775,1.775,0,0,0,0,2.51,1.774,1.774,0,0,1-1.254,3.028Z" transform="translate(-40.103 -43.514)"/></g><g transform="translate(59.661 69.675)"><path class="a" d="M44.97,52.4a1.769,1.769,0,0,1-1.254-.52l-2.508-2.508a1.774,1.774,0,0,1,2.508-2.508l2.508,2.508A1.774,1.774,0,0,1,44.97,52.4Z" transform="translate(-40.687 -46.343)"/></g><g transform="translate(64.676 58.604)"><path class="a" d="M50.307,44.688a1.769,1.769,0,0,1-1.254-.52,1.819,1.819,0,0,0-2.51,0,1.774,1.774,0,0,1-2.508-2.508,5.326,5.326,0,0,1,7.527,0,1.774,1.774,0,0,1-1.254,3.028Z" transform="translate(-43.514 -40.102)"/></g><g transform="translate(69.694 59.641)"><path class="a" d="M61.4,57.513a1.769,1.769,0,0,1-1.254-.52L46.863,43.715a1.774,1.774,0,0,1,2.508-2.508L62.65,54.485A1.774,1.774,0,0,1,61.4,57.513Z" transform="translate(-46.343 -40.687)"/></g><g transform="translate(59.661 59.641)"><path class="a" d="M42.461,49.252a1.774,1.774,0,0,1-1.254-3.028l5.017-5.017a1.774,1.774,0,1,1,2.508,2.508l-5.017,5.017A1.775,1.775,0,0,1,42.461,49.252Z" transform="translate(-40.687 -40.687)"/></g><g transform="translate(58.866 48.809)"><path class="a" d="M42.437,38.555a1.773,1.773,0,0,1-1.256-.52l-.424-.426A1.775,1.775,0,1,1,43.269,35.1l.424.426a1.774,1.774,0,0,1-1.256,3.028Z" transform="translate(-40.239 -34.581)"/></g><g transform="translate(59.288 49.233)"><path class="a" d="M42.514,43.092a1.774,1.774,0,0,1-1.385-2.881A1.776,1.776,0,0,0,41,37.848a1.774,1.774,0,0,1,2.508-2.508,5.318,5.318,0,0,1,.4,7.085,1.764,1.764,0,0,1-1.387.667Z" transform="translate(-40.477 -34.82)"/></g><g transform="translate(53.978 53.959)"><path class="a" d="M39.259,46.606a1.774,1.774,0,0,1-1.109-3.159,33.82,33.82,0,0,0,5.3-5.3,1.773,1.773,0,0,1,2.771,2.214,37.286,37.286,0,0,1-5.854,5.854,1.755,1.755,0,0,1-1.1.387Z" transform="translate(-37.483 -37.484)"/></g><g transform="translate(48.828 58.846)"><path class="a" d="M36.781,44.211a1.77,1.77,0,0,1-1.254-.518l-.426-.424a1.775,1.775,0,1,1,2.508-2.512l.426.424a1.774,1.774,0,0,1-1.254,3.03Z" transform="translate(-34.58 -40.239)"/></g><g transform="translate(49.253 59.268)"><path class="a" d="M39.1,45.066a5.313,5.313,0,0,1-3.764-1.561A1.774,1.774,0,0,1,37.848,41a1.774,1.774,0,0,0,2.363.131A1.773,1.773,0,0,1,42.425,43.9,5.294,5.294,0,0,1,39.1,45.066Z" transform="translate(-34.82 -40.477)"/></g><g transform="translate(20.19 38.081)"><path class="a" d="M20.21,47.75a1.775,1.775,0,0,1-1.566-2.606l8.316-15.669a1.774,1.774,0,0,1,3.135,1.662L21.778,46.807a1.771,1.771,0,0,1-1.568.944Z" transform="translate(-18.437 -28.533)"/></g><g transform="translate(24.737 24.717)"><path class="a" d="M29.87,38.74a8.87,8.87,0,1,1,8.87-8.87A8.989,8.989,0,0,1,29.87,38.74Zm0-14.192a5.322,5.322,0,1,0,5.322,5.322A5.394,5.394,0,0,0,29.87,24.548Z" transform="translate(-21 -21)"/></g><g transform="translate(70.86 13.768)"><path class="a" d="M55.87,32.568A8.989,8.989,0,0,1,47,23.7a8.87,8.87,0,0,1,17.74,0A8.989,8.989,0,0,1,55.87,32.568Zm0-14.192A5.322,5.322,0,1,0,61.192,23.7,5.394,5.394,0,0,0,55.87,18.376Z" transform="translate(-47 -14.828)"/></g><g transform="translate(38.737 26.077)"><path class="a" d="M30.664,29.412a1.774,1.774,0,0,1-.408-3.5l17.261-4.1a1.774,1.774,0,1,1,.82,3.452l-17.261,4.1a1.833,1.833,0,0,1-.412.048Z" transform="translate(-28.892 -21.766)"/></g><g transform="translate(0 15.546)"><path class="a" d="M40.73,67.539A33.771,33.771,0,0,1,14.872,55.586,34.185,34.185,0,0,1,11.66,16.7a1.774,1.774,0,1,1,3.053,1.808A30.582,30.582,0,0,0,17.587,53.3a30.672,30.672,0,0,0,39.128,6.1,1.774,1.774,0,0,1,1.889,3A33.523,33.523,0,0,1,40.73,67.539Z" transform="translate(-7.056 -15.83)"/></g><g transform="translate(62.9 22.503)"><path class="a" d="M44.285,25.235a1.774,1.774,0,0,1-.408-3.5L52.029,19.8a1.774,1.774,0,0,1,.82,3.452L44.7,25.188a1.81,1.81,0,0,1-.412.048Z" transform="translate(-42.513 -19.752)"/></g></g></svg>