<svg xmlns="http://www.w3.org/2000/svg" width="18.39" height="12.202" viewBox="0 0 18.39 12.202"><defs><style>.a{fill:#0067d4;}</style></defs><g transform="translate(0 -86.137)"><g transform="translate(0 86.137)"><path class="a" d="M16.773,88.648H11.545L9.831,86.927a2.691,2.691,0,0,0-3.587-.2L2.957,89.357a1.616,1.616,0,0,0-1.341-.715H.539A.539.539,0,0,0,0,89.181V97.8a.539.539,0,0,0,.539.539H1.616a1.618,1.618,0,0,0,1.446-.895,14.475,14.475,0,0,0,5.023.895h2.151a1.615,1.615,0,0,0,1.5-2.212,1.615,1.615,0,0,0,1.077-2.155,1.615,1.615,0,0,0,1.1-2.1h2.86a1.618,1.618,0,0,0,1.616-1.616v0A1.61,1.61,0,0,0,16.773,88.648ZM2.155,96.723a.539.539,0,0,1-.539.539H1.077V89.72h.539a.539.539,0,0,1,.539.539v6.464Zm15.157-6.466a.546.546,0,0,1-.539.546H10.241a.533.533,0,0,0-.539.532.539.539,0,0,0,.539.539H12.39a.539.539,0,0,1,0,1.077H10.235a.539.539,0,0,0,0,1.077h1.077a.539.539,0,0,1,0,1.077H10.235a.539.539,0,0,0,0,1.077.539.539,0,1,1,0,1.077H8.084a13.4,13.4,0,0,1-4.852-.9v-5.84L6.916,87.57a1.614,1.614,0,0,1,2.152.119l.952.96c-1.82,0-.014,0-1.941,0a.539.539,0,0,0-.539.539.533.533,0,0,0,.539.532l8.693,0a.538.538,0,0,1,.539.535v0Z" transform="translate(0 -86.137)"/></g></g></svg>