<svg xmlns="http://www.w3.org/2000/svg" width="27.526" height="34.885" viewBox="0 0 27.526 34.885"><path d="M84.662,20.1l.631-2.766a.833.833,0,0,0-.161-.7l-1.769-2.218-.631-2.766a.833.833,0,0,0-.451-.565L79.726,9.845,77.957,7.627a.833.833,0,0,0-.651-.314H74.469L71.913,6.082a.834.834,0,0,0-.723,0L68.634,7.313H65.8a.833.833,0,0,0-.651.314L63.377,9.845l-2.556,1.231a.833.833,0,0,0-.451.565l-.631,2.766L57.97,16.625a.833.833,0,0,0-.161.7L58.44,20.1l-.631,2.766a.833.833,0,0,0,.161.7l1.769,2.218.631,2.766a.833.833,0,0,0,.451.565l1.971.949-4.146,5.452a.839.839,0,0,0,.509,1.323l3.252.614,1.46,2.97a.839.839,0,0,0,1.411.137l5.177-6.807.736.354a.834.834,0,0,0,.723,0l.736-.354,5.177,6.807a.839.839,0,0,0,1.411-.137l1.46-2.97,3.252-.614a.839.839,0,0,0,.509-1.323l-4.146-5.452,1.97-.949a.833.833,0,0,0,.451-.565l.631-2.766,1.769-2.218a.833.833,0,0,0,.161-.7Zm-19.9,18.383-1.049-2.134a.833.833,0,0,0-.593-.451l-2.337-.441,3.252-4.275,1.106,1.387a.833.833,0,0,0,.651.314h2.837l.288.139Zm15.211-2.585a.833.833,0,0,0-.593.451l-1.049,2.134-4.155-5.463.288-.139h2.837a.833.833,0,0,0,.651-.314l1.106-1.387,3.252,4.275ZM83,20.281l.584,2.56-1.637,2.053a.833.833,0,0,0-.161.334l-.584,2.56-2.366,1.14a.833.833,0,0,0-.29.231L76.9,31.211H74.278a.834.834,0,0,0-.361.082l-2.366,1.139-2.366-1.139a.833.833,0,0,0-.361-.082H66.2l-1.637-2.053a.833.833,0,0,0-.29-.231l-2.366-1.139-.584-2.56a.833.833,0,0,0-.161-.334l-1.637-2.053.584-2.56a.833.833,0,0,0,0-.371l-.584-2.56L61.16,15.3a.833.833,0,0,0,.161-.334l.584-2.56,2.366-1.14a.833.833,0,0,0,.29-.231L66.2,8.98h2.626a.833.833,0,0,0,.361-.082l2.366-1.139L73.917,8.9a.834.834,0,0,0,.362.082H76.9l1.637,2.053a.833.833,0,0,0,.29.231L81.2,12.4l.584,2.56a.833.833,0,0,0,.161.334l1.637,2.053L83,19.91a.831.831,0,0,0,0,.371Z" transform="translate(-57.788 -6)"/><path d="M120.138,64a10.138,10.138,0,1,0,10.138,10.138A10.15,10.15,0,0,0,120.138,64Zm0,18.609a8.471,8.471,0,1,1,8.471-8.471A8.471,8.471,0,0,1,120.138,82.609Z" transform="translate(-106.375 -59.973)"/><path d="M191.211,170.376a.833.833,0,0,0-.911,0l-1.708,1.116-1.485-2.437a.833.833,0,0,0-1.423,0l-1.485,2.437-1.708-1.116a.833.833,0,0,0-1.278.835l.793,4.757a.833.833,0,0,0,.822.7h7.136a.833.833,0,0,0,.822-.7l.793-4.757A.833.833,0,0,0,191.211,170.376ZM189.257,175h-5.724l-.365-2.188.839.548a.833.833,0,0,0,1.167-.264l1.221-2,1.221,2a.833.833,0,0,0,1.167.264l.838-.548Z" transform="translate(-172.632 -157.361)"/><circle cx="0.833" cy="0.833" r="0.833" transform="translate(12.93 9.049)"/><circle cx="0.833" cy="0.833" r="0.833" transform="translate(18.762 11.249)"/><circle cx="0.833" cy="0.833" r="0.833" transform="translate(7.097 11.249)"/></svg>