<svg xmlns="http://www.w3.org/2000/svg" width="31.072" height="31.072" viewBox="0 0 31.072 31.072"><path d="M184.872,1.409a4.818,4.818,0,1,0,0,6.815,4.823,4.823,0,0,0,0-6.815Zm-1.287,5.528a3,3,0,1,1,0-4.24A3,3,0,0,1,183.585,6.936Z" transform="translate(-165.929 0)"/><path d="M1.413,184.855a4.818,4.818,0,1,0,0-6.815,4.823,4.823,0,0,0,0,6.815ZM2.7,179.328a3,3,0,1,1,0,4.24A3,3,0,0,1,2.7,179.328Z" transform="translate(0 -165.911)"/><path d="M361.412,178.04a4.818,4.818,0,1,0,0,6.815,4.823,4.823,0,0,0,0-6.815Zm-1.287,5.527h0a3,3,0,1,1,0-4.24A3,3,0,0,1,360.125,183.568Z" transform="translate(-331.752 -165.911)"/><path d="M178.057,354.673a4.818,4.818,0,1,0,6.814,0A4.825,4.825,0,0,0,178.057,354.673Zm5.526,5.528a3,3,0,1,1,0-4.24A3,3,0,0,1,183.584,360.2Z" transform="translate(-165.928 -331.824)"/><path d="M92.563,88.463a.91.91,0,0,0-1.268-.224,12.271,12.271,0,0,0-3.02,3.021A.91.91,0,1,0,89.766,92.3a10.455,10.455,0,0,1,2.574-2.574A.91.91,0,0,0,92.563,88.463Z" transform="translate(-82.763 -82.729)"/><path d="M347.966,352.052a.91.91,0,0,0,1.268.224,12.273,12.273,0,0,0,3.02-3.021.91.91,0,1,0-1.491-1.045,10.455,10.455,0,0,1-2.574,2.574A.91.91,0,0,0,347.966,352.052Z" transform="translate(-326.694 -326.713)"/><path d="M92.34,350.786a10.456,10.456,0,0,1-2.574-2.574.91.91,0,1,0-1.491,1.045,12.27,12.27,0,0,0,3.02,3.021.91.91,0,0,0,1.044-1.492Z" transform="translate(-82.763 -326.715)"/><path d="M350.762,92.3a.91.91,0,1,0,1.491-1.045,12.27,12.27,0,0,0-3.02-3.021.91.91,0,0,0-1.044,1.492A10.455,10.455,0,0,1,350.762,92.3Z" transform="translate(-326.693 -82.729)"/></svg>