<svg xmlns="http://www.w3.org/2000/svg" width="90" height="83.627" viewBox="0 0 90 83.627"><defs><style>.a{fill:#ffb300;}</style></defs><path class="a" d="M37.373,76H0V0H90V76H52.628L45,83.627Z"/><g transform="translate(28 20.842)"><path d="M39,106.291a8.437,8.437,0,0,0,1.068-.439l2.283,1.522,3.04-3.039-1.523-2.283a8.314,8.314,0,0,0,.439-1.068L47,100.444v-4.3l-2.694-.539a8.336,8.336,0,0,0-.6-1.375l-.986.542a7.288,7.288,0,0,1,.608,1.476l.1.328,2.451.49v2.453l-2.451.49-.1.328a7.32,7.32,0,0,1-.608,1.476l-.165.3,1.385,2.076-1.735,1.735-2.077-1.385-.3.165a7.3,7.3,0,0,1-1.475.608l-.327.1-.491,2.451H35.086l-.49-2.45-.327-.1a7.259,7.259,0,0,1-1.475-.608l-.3-.165-2.077,1.385-2.061-2.061-.8.8,2.714,2.713,2.283-1.522a8.352,8.352,0,0,0,1.068.439l.538,2.694h4.3Z" transform="translate(-25.622 -87.604)"/><path d="M3.294,14.753l.986-.542a7.288,7.288,0,0,1-.608-1.476l-.1-.328-2.451-.49V9.464l2.451-.49.1-.328A7.32,7.32,0,0,1,4.279,7.17l.165-.3L3.059,4.794,4.794,3.06,6.871,4.444l.3-.165a7.3,7.3,0,0,1,1.475-.608l.327-.1.491-2.451h2.454l.49,2.45.327.1a7.258,7.258,0,0,1,1.475.608l.3.165,2.077-1.385L18.647,5.12l.8-.8L16.729,1.611,14.446,3.133a8.353,8.353,0,0,0-1.068-.439L12.839,0h-4.3L8,2.694a8.435,8.435,0,0,0-1.068.439L4.651,1.611,1.611,4.651,3.133,6.934A8.313,8.313,0,0,0,2.694,8L0,8.541v4.3l2.694.539A8.311,8.311,0,0,0,3.294,14.753Z"/><path d="M158.189,70.189A6.2,6.2,0,0,0,152,64v1.125a5.07,5.07,0,0,1,5.064,5.064Z" transform="translate(-141.309 -59.499)"/><path d="M65.125,152H64a6.2,6.2,0,0,0,6.189,6.189v-1.125A5.07,5.07,0,0,1,65.125,152Z" transform="translate(-59.499 -141.309)"/><path d="M103.877,99.939a3.939,3.939,0,1,0-3.939,3.939A3.943,3.943,0,0,0,103.877,99.939Zm-6.752,0a2.813,2.813,0,1,1,2.813,2.813A2.816,2.816,0,0,1,97.125,99.939Z" transform="translate(-89.248 -89.248)"/><path d="M171.266,360.488l-.977.558a4.5,4.5,0,0,1,.424,1.027l.1.346,1.2.2v1.3l-1.2.2-.1.346a4.507,4.507,0,0,1-.424,1.027l-.178.313.7.986-.918.917-.986-.7-.313.178a4.461,4.461,0,0,1-1.027.424l-.346.1-.2,1.2h-1.3l-.2-1.2-.346-.1a4.449,4.449,0,0,1-1.027-.424l-.313-.178-.986.7L161.6,366.45l-.8.8,1.928,1.929,1.187-.847a5.671,5.671,0,0,0,.613.253l.24,1.439h3.2l.24-1.44a5.694,5.694,0,0,0,.613-.253l1.187.847,2.265-2.266-.847-1.186a5.673,5.673,0,0,0,.253-.613l1.44-.24v-3.2l-1.44-.24A5.521,5.521,0,0,0,171.266,360.488Z" transform="translate(-149.498 -335.134)"/><path d="M145.864,313.531l.977-.558a4.505,4.505,0,0,1-.424-1.027l-.1-.346-1.2-.2v-1.3l1.2-.2.1-.346a4.5,4.5,0,0,1,.424-1.027l.178-.313-.7-.986.918-.917.986.7.313-.178a4.461,4.461,0,0,1,1.027-.424l.346-.1.2-1.2h1.3l.2,1.2.346.1a4.453,4.453,0,0,1,1.027.424l.313.178.986-.7,1.254,1.254.8-.8-1.928-1.929-1.187.847a5.687,5.687,0,0,0-.613-.253l-.24-1.439h-3.2l-.24,1.44a5.682,5.682,0,0,0-.613.253l-1.187-.847-2.265,2.266.847,1.186a5.67,5.67,0,0,0-.253.613l-1.44.24v3.2l1.44.24A5.522,5.522,0,0,0,145.864,313.531Z" transform="translate(-133.872 -282.619)"/><path d="M202.813,360a2.813,2.813,0,1,0,2.813,2.813A2.816,2.816,0,0,0,202.813,360Zm0,4.5a1.688,1.688,0,1,1,1.688-1.688A1.69,1.69,0,0,1,202.813,364.5Z" transform="translate(-185.934 -334.68)"/><path d="M333.13,196.869v-3.2l-1.44-.24a5.523,5.523,0,0,0-.424-.937l-.977.558a4.508,4.508,0,0,1,.424,1.027l.1.346,1.2.2v1.3l-1.2.2-.1.346a4.508,4.508,0,0,1-.424,1.027l-.178.313.7.986-.918.917-.986-.7-.313.178a4.461,4.461,0,0,1-1.027.424l-.346.1-.2,1.2h-1.3l-.2-1.2-.346-.1a4.451,4.451,0,0,1-1.027-.424l-.313-.178-.986.7L321.6,198.45l-.8.8,1.928,1.929,1.187-.847a5.683,5.683,0,0,0,.613.253l.24,1.439h3.2l.24-1.44a5.686,5.686,0,0,0,.613-.253l1.187.847,2.265-2.266-.847-1.186a5.673,5.673,0,0,0,.253-.613Z" transform="translate(-298.245 -178.95)"/><path d="M305.44,140.91l-1.44.24v3.2l1.44.24a5.521,5.521,0,0,0,.424.937l.977-.558a4.5,4.5,0,0,1-.424-1.027l-.1-.346-1.2-.2v-1.3l1.2-.2.1-.346a4.5,4.5,0,0,1,.424-1.027l.178-.313-.7-.986.918-.917.986.7.313-.178a4.461,4.461,0,0,1,1.027-.424l.346-.1.2-1.2h1.3l.2,1.2.346.1a4.451,4.451,0,0,1,1.027.424l.313.178.986-.7,1.254,1.254.8-.8-1.928-1.929-1.187.847a5.679,5.679,0,0,0-.613-.253l-.24-1.439h-3.2l-.24,1.44a5.682,5.682,0,0,0-.613.253l-1.187-.847-2.265,2.266.847,1.186A5.516,5.516,0,0,0,305.44,140.91Z" transform="translate(-282.619 -126.435)"/><path d="M362.813,192a2.813,2.813,0,1,0,2.813,2.813A2.816,2.816,0,0,0,362.813,192Zm0,4.5a1.688,1.688,0,1,1,1.688-1.688A1.69,1.69,0,0,1,362.813,196.5Z" transform="translate(-334.68 -178.496)"/></g></svg>