<svg xmlns="http://www.w3.org/2000/svg" width="15.321" height="10.533" viewBox="0 0 15.321 10.533"><defs><style>.a{fill:#fff;}</style></defs><g transform="translate(10.156 1.942)"><path class="a" d="M339.392,148.3l5.165,3.265V144.9Z" transform="translate(-339.392 -144.896)"/></g><g transform="translate(0 1.942)"><path class="a" d="M0,144.9v6.669L5.165,148.3Z" transform="translate(0 -144.896)"/></g><g transform="translate(0.029 0)"><path class="a" d="M15.295,80H1.889a.946.946,0,0,0-.929.815l7.632,5.028,7.632-5.028A.946.946,0,0,0,15.295,80Z" transform="translate(-0.96 -80)"/></g><g transform="translate(0.031 5.923)"><path class="a" d="M10.272,277.921l-1.355.892a.481.481,0,0,1-.527,0l-1.355-.893-6.012,3.8a.944.944,0,0,0,.927.808H15.357a.944.944,0,0,0,.927-.808Z" transform="translate(-1.024 -277.92)"/></g></svg>