<svg xmlns="http://www.w3.org/2000/svg" width="25" height="25" viewBox="0 0 25 25"><defs><style>.a{fill:#0067d4;}.b{fill:#fff;}</style></defs><g transform="translate(-142 -4134)"><rect class="a" width="25" height="25" rx="6" transform="translate(142 4134)"/><g transform="translate(144.155 4134.51)"><path class="b" d="M35.419,67.828h-.665a.224.224,0,1,1,0-.448h.665a.224.224,0,0,1,0,.448Z" transform="translate(-25.242 -48.704)"/><path class="b" d="M12.668,45.859H11.174a.224.224,0,0,1-.224-.224V39.294a.224.224,0,1,1,.448,0v6.117h1.27a.224.224,0,0,1,0,.448Z" transform="translate(-6.943 -26.735)"/><path class="b" d="M25.5,67.828h-.652a.224.224,0,0,1,0-.448H25.5a.224.224,0,0,1,0,.448Z" transform="translate(-17.551 -48.704)"/><path class="b" d="M48.431,45.859H44.724a.224.224,0,0,1,0-.448h3.483V39.294a.224.224,0,1,1,.448,0v6.341A.224.224,0,0,1,48.431,45.859Z" transform="translate(-32.978 -26.735)"/><path class="b" d="M16.521,14.32a1.156,1.156,0,0,1-.791-.314L9.842,8.5,3.953,14.007a1.16,1.16,0,0,1-1.584-1.694l1.845-1.725a.224.224,0,1,1,.306.327L2.675,12.641a.711.711,0,0,0,.972,1.039L9.688,8.029a.224.224,0,0,1,.306,0l6.041,5.651a.729.729,0,0,0,1-.034.71.71,0,0,0-.031-1L10.327,6.392a.712.712,0,0,0-.97,0L6.9,8.689a.224.224,0,1,1-.306-.326l2.457-2.3a1.162,1.162,0,0,1,1.581,0l6.682,6.249a1.16,1.16,0,0,1-.793,2.006Z" transform="translate(0 -0.882)"/><path class="b" d="M11.782,10.093a.224.224,0,0,1-.224-.224V4.842a.224.224,0,0,1,.224-.224h2.38a.224.224,0,0,1,.224.224v2.8a.224.224,0,1,1-.448,0V5.066H12.006v4.8A.224.224,0,0,1,11.782,10.093Z" transform="translate(-7.415)"/><path class="b" d="M28.707,39.271a.224.224,0,0,1-.209-.144,11.53,11.53,0,0,0-1.282-2.292A3.5,3.5,0,0,1,26.7,35.75l-.022-.086A2.163,2.163,0,0,1,26.8,34.2a2.113,2.113,0,0,1,3.808,0,2.166,2.166,0,0,1,.128,1.467l-.022.086a3.51,3.51,0,0,1-.518,1.085,11.746,11.746,0,0,0-1.281,2.292A.224.224,0,0,1,28.707,39.271Zm0-5.824a1.66,1.66,0,0,0-1.5.944,1.714,1.714,0,0,0-.1,1.163l.02.078a3.058,3.058,0,0,0,.452.945,13.356,13.356,0,0,1,1.124,1.9,13.252,13.252,0,0,1,1.124-1.9,3.06,3.06,0,0,0,.452-.946l.02-.078a1.715,1.715,0,0,0-.1-1.162A1.659,1.659,0,0,0,28.707,33.447Z" transform="translate(-19.089 -22.024)"/><path class="b" d="M31.863,39.631a1.194,1.194,0,1,1,1.194-1.194A1.194,1.194,0,0,1,31.863,39.631Zm0-1.94a.746.746,0,1,0,.746.746A.746.746,0,0,0,31.863,37.691Z" transform="translate(-22.245 -25.317)"/></g></g></svg>