<svg xmlns="http://www.w3.org/2000/svg" xmlns:xlink="http://www.w3.org/1999/xlink" width="33" height="33" viewBox="0 0 33 33"><defs><style>.a{fill:url(#a);}.b{fill:#fff;}</style><linearGradient id="a" x1="1" x2="0" y2="1" gradientUnits="objectBoundingBox"><stop offset="0" stop-color="#fd5"/><stop offset="0.5" stop-color="#ff543e"/><stop offset="1" stop-color="#c837ab"/></linearGradient></defs><g transform="translate(-947 -4364)"><rect class="a" width="33" height="33" rx="4" transform="translate(947 4364)"/><g transform="translate(953.555 4371.051)"><path class="b" d="M20.191,5.82a7.234,7.234,0,0,0-.46-2.4,5.071,5.071,0,0,0-2.9-2.9,7.252,7.252,0,0,0-2.4-.46C13.373.012,13.037,0,10.349,0S7.325.012,6.269.058a7.236,7.236,0,0,0-2.4.46A4.83,4.83,0,0,0,2.112,1.663,4.874,4.874,0,0,0,.971,3.415a7.253,7.253,0,0,0-.46,2.4C.46,6.876.449,7.213.449,9.9s.012,3.024.058,4.08a7.233,7.233,0,0,0,.46,2.4,5.07,5.07,0,0,0,2.9,2.9,7.253,7.253,0,0,0,2.4.46c1.056.047,1.392.058,4.08.058s3.024-.011,4.08-.058a7.232,7.232,0,0,0,2.4-.46,5.064,5.064,0,0,0,2.9-2.9,7.258,7.258,0,0,0,.46-2.4c.046-1.056.058-1.392.058-4.08s0-3.024-.05-4.08ZM18.409,13.9a5.426,5.426,0,0,1-.34,1.837,3.284,3.284,0,0,1-1.88,1.88,5.445,5.445,0,0,1-1.837.34c-1.044.047-1.357.058-4,.058s-2.959-.011-4-.058a5.423,5.423,0,0,1-1.837-.34,3.046,3.046,0,0,1-1.137-.739,3.078,3.078,0,0,1-.739-1.137,5.446,5.446,0,0,1-.34-1.837c-.047-1.044-.058-1.358-.058-4s.011-2.959.058-4a5.423,5.423,0,0,1,.34-1.837,3.009,3.009,0,0,1,.743-1.137A3.073,3.073,0,0,1,4.521,2.2a5.449,5.449,0,0,1,1.837-.34c1.044-.046,1.358-.058,4-.058s2.959.012,4,.058a5.426,5.426,0,0,1,1.837.34,3.044,3.044,0,0,1,1.137.739,3.077,3.077,0,0,1,.739,1.137,5.448,5.448,0,0,1,.34,1.837c.046,1.044.058,1.357.058,4s-.012,2.951-.058,4Zm0,0" transform="translate(0 0)"/><path class="b" d="M130.035,124.5a5.086,5.086,0,1,0,5.086,5.086A5.087,5.087,0,0,0,130.035,124.5Zm0,8.384a3.3,3.3,0,1,1,3.3-3.3A3.3,3.3,0,0,1,130.035,132.884Zm0,0" transform="translate(-119.686 -119.685)"/><path class="b" d="M364.824,89.789a1.187,1.187,0,1,1-1.187-1.187A1.187,1.187,0,0,1,364.824,89.789Zm0,0" transform="translate(-348.001 -85.175)"/></g></g></svg>