<svg xmlns="http://www.w3.org/2000/svg" width="17.946" height="18.462" viewBox="0 0 17.946 18.462"><path d="M24.083,12.551a2.293,2.293,0,0,0,.537-1.533,2.355,2.355,0,0,0-.5-1.328,2.063,2.063,0,0,0-.49-2.374,4.263,4.263,0,0,0-3.1-.741,12.116,12.116,0,0,0-1.9.243h0c-.193.035-.4.077-.606.124A6.735,6.735,0,0,1,18.5,4.7c.54-1.645.51-2.9-.1-3.745A2.454,2.454,0,0,0,16.435,0a.97.97,0,0,0-.745.34,2.6,2.6,0,0,0-.324,1.842c-.51,1.367-1.938,4.718-3.146,5.648a.413.413,0,0,0-.062.054A4.147,4.147,0,0,0,11.4,9.018a1.593,1.593,0,0,0-.764-.193H8.281a1.607,1.607,0,0,0-1.606,1.606v6.274a1.607,1.607,0,0,0,1.606,1.606h2.355a1.6,1.6,0,0,0,.927-.293l.907.108a38.871,38.871,0,0,0,5.146.282c.459.035.892.054,1.293.054a8.662,8.662,0,0,0,1.8-.162,3.357,3.357,0,0,0,2.4-1.49,2.363,2.363,0,0,0,.263-1.479,2.463,2.463,0,0,0,.876-2A2.608,2.608,0,0,0,24.083,12.551Zm-15.8,4.718a.564.564,0,0,1-.564-.564V10.428a.564.564,0,0,1,.564-.564h2.355a.564.564,0,0,1,.564.564V16.7a.564.564,0,0,1-.564.564H8.281ZM23.094,12.1a.519.519,0,0,0-.069.629,1.606,1.606,0,0,1,.178.645,1.545,1.545,0,0,1-.726,1.336.526.526,0,0,0-.178.595,1.363,1.363,0,0,1-.1,1,2.415,2.415,0,0,1-1.706.981,10.171,10.171,0,0,1-2.814.085H17.62a38.108,38.108,0,0,1-5.019-.274h0l-.39-.046a1.636,1.636,0,0,0,.035-.34V10.428a1.633,1.633,0,0,0-.073-.479,3.227,3.227,0,0,1,.718-1.324c1.733-1.374,3.428-6.011,3.5-6.212a.489.489,0,0,0,.023-.259,2.413,2.413,0,0,1,.05-1.12,1.385,1.385,0,0,1,1.089.521c.394.544.378,1.517-.046,2.807-.649,1.965-.7,3-.189,3.455a.841.841,0,0,0,.842.151c.235-.054.459-.1.672-.135l.05-.012c1.185-.259,3.309-.417,4.046.255a1.111,1.111,0,0,1,.131,1.409.516.516,0,0,0,.093.672,1.462,1.462,0,0,1,.429.9A1.434,1.434,0,0,1,23.094,12.1Z" transform="translate(-6.675 0)" fill="#010000"/></svg>