<svg xmlns="http://www.w3.org/2000/svg" width="33" height="33" viewBox="0 0 33 33"><defs><style>.a{fill:#0077b5;}.b{fill:#fff;}</style></defs><g transform="translate(-1119 -4364)"><rect class="a" width="33" height="33" rx="4" transform="translate(1119 4364)"/><g transform="translate(1128.009 4373.009)"><path class="b" d="M18.814,18.512h0V12.65c0-2.867-.617-5.076-3.969-5.076A3.48,3.48,0,0,0,11.714,9.3h-.047V7.842H8.489v10.67H11.8V13.228c0-1.391.264-2.736,1.986-2.736,1.7,0,1.723,1.587,1.723,2.825v5.195Z" transform="translate(-2.836 -2.531)"/><path class="b" d="M.4,7.977H3.709v10.67H.4Z" transform="translate(-0.132 -2.665)"/><path class="b" d="M1.919,0A1.928,1.928,0,1,0,3.838,1.919,1.92,1.92,0,0,0,1.919,0Z"/></g></g></svg>