<svg xmlns="http://www.w3.org/2000/svg" width="15.669" height="10.446" viewBox="0 0 15.669 10.446"><defs><style>.a{fill:#fff;}</style></defs><g transform="translate(0 -85.333)"><g transform="translate(0 85.333)"><path class="a" d="M14.865,85.333H.8a.806.806,0,0,0-.8.8v8.839a.806.806,0,0,0,.8.8H14.865a.806.806,0,0,0,.8-.8V86.137A.806.806,0,0,0,14.865,85.333Zm-.3.6L8.3,90.636a.84.84,0,0,1-.924,0l-6.267-4.7Zm-3.348,5.011,3.415,4.219.011.011H1.026l.011-.011,3.415-4.219a.3.3,0,0,0-.468-.379L.6,94.745V86.312l6.408,4.806a1.438,1.438,0,0,0,1.647,0l6.408-4.806v8.432l-3.382-4.177a.3.3,0,0,0-.468.379Z" transform="translate(0 -85.333)"/></g></g></svg>