<svg xmlns="http://www.w3.org/2000/svg" width="25" height="25" viewBox="0 0 25 25"><defs><style>.a{fill:#0067d4;}.b{fill:#fff;}</style></defs><g transform="translate(-142 -4098)"><rect class="a" width="25" height="25" rx="6" transform="translate(142 4098)"/><g transform="translate(145.822 4103.499)"><g transform="translate(0.344 0)"><path class="b" d="M12.036,35.722a1.456,1.456,0,0,0-1.056-.484,1.506,1.506,0,0,0-1.069.481l-.988.984c-.081-.044-.163-.084-.241-.125-.113-.056-.219-.109-.309-.166A10.733,10.733,0,0,1,5.8,34.069a6.332,6.332,0,0,1-.844-1.331c.256-.234.494-.478.725-.713.088-.087.175-.178.263-.266a1.434,1.434,0,0,0,0-2.163l-.853-.853c-.1-.1-.2-.2-.291-.3-.188-.194-.384-.394-.588-.581a1.479,1.479,0,0,0-1.047-.459,1.531,1.531,0,0,0-1.063.459l-.006.006L1.035,28.944A2.286,2.286,0,0,0,.357,30.4a5.478,5.478,0,0,0,.4,2.319A13.455,13.455,0,0,0,3.148,36.7a14.706,14.706,0,0,0,4.9,3.834,7.63,7.63,0,0,0,2.75.813c.066,0,.134.006.2.006a2.355,2.355,0,0,0,1.8-.775c0-.006.009-.009.013-.016A7.1,7.1,0,0,1,13.354,40c.134-.128.272-.263.406-.4a1.559,1.559,0,0,0,.472-1.081,1.5,1.5,0,0,0-.481-1.072Zm1.119,3.291s0,0,0,0c-.122.131-.247.25-.381.381a8.217,8.217,0,0,0-.6.625,1.507,1.507,0,0,1-1.175.5c-.047,0-.1,0-.144,0a6.778,6.778,0,0,1-2.438-.731A13.882,13.882,0,0,1,3.8,36.169a12.687,12.687,0,0,1-2.25-3.747,4.462,4.462,0,0,1-.35-1.956,1.435,1.435,0,0,1,.431-.928L2.7,28.472a.71.71,0,0,1,.475-.222.668.668,0,0,1,.456.219l.009.009c.191.178.372.363.563.559.1.1.2.2.3.3l.853.853a.6.6,0,0,1,0,.969c-.091.091-.178.181-.269.269-.263.269-.513.519-.784.763-.006.006-.013.009-.016.016a.637.637,0,0,0-.163.709l.009.028a6.849,6.849,0,0,0,1.009,1.647l0,0a11.47,11.47,0,0,0,2.775,2.525,4.266,4.266,0,0,0,.384.209c.113.056.219.109.309.166.012.006.025.016.038.022a.677.677,0,0,0,.309.078.668.668,0,0,0,.475-.216L10.5,36.312a.707.707,0,0,1,.472-.234.636.636,0,0,1,.45.228l.006.006,1.722,1.722A.618.618,0,0,1,13.154,39.012Z" transform="translate(-0.344 -26.55)"/><path class="b" d="M245.291,86.762a4.022,4.022,0,0,1,3.275,3.275.419.419,0,0,0,.416.35.557.557,0,0,0,.072-.006.422.422,0,0,0,.347-.487,4.863,4.863,0,0,0-3.963-3.963.424.424,0,0,0-.487.344A.417.417,0,0,0,245.291,86.762Z" transform="translate(-237.3 -83.24)"/><path class="b" d="M255.79,6.532A8.008,8.008,0,0,0,249.265.007a.421.421,0,1,0-.137.831,7.153,7.153,0,0,1,5.831,5.831.419.419,0,0,0,.416.35.558.558,0,0,0,.072-.006A.414.414,0,0,0,255.79,6.532Z" transform="translate(-241.012 0)"/></g></g></g></svg>