<svg xmlns="http://www.w3.org/2000/svg" width="13.733" height="13.762" viewBox="0 0 13.733 13.762"><defs><style>.a{fill:#fff;}</style></defs><g transform="translate(0 0)"><path class="a" d="M13.912,10.1,11.992,8.18a1.277,1.277,0,0,0-2.126.48,1.307,1.307,0,0,1-1.509.823A5.922,5.922,0,0,1,4.79,5.916a1.243,1.243,0,0,1,.823-1.509,1.277,1.277,0,0,0,.48-2.126L4.172.36A1.37,1.37,0,0,0,2.32.36l-1.3,1.3c-1.3,1.372.137,5.007,3.361,8.231s6.859,4.733,8.231,3.361l1.3-1.3A1.37,1.37,0,0,0,13.912,10.1Z" transform="translate(-0.539 0)"/></g></svg>