<svg xmlns="http://www.w3.org/2000/svg" width="13.6" height="21.759" viewBox="0 0 13.6 21.759"><path d="M260.456,306.85a.425.425,0,1,0-.425-.425A.425.425,0,0,0,260.456,306.85Zm0,0" transform="translate(-248.98 -292.996)" fill="#010000"/><path d="M.082,51.906a12.408,12.408,0,0,0,3.306,5.935l.014.014v1.779a.425.425,0,0,0,.425.425h7.65a.425.425,0,0,0,.425-.425V57.806a10.545,10.545,0,0,0,1.7-5.741v-3.31a1.7,1.7,0,0,0-2.646-1.412,1.7,1.7,0,0,0-2.55-.85,1.7,1.7,0,0,0-2.454-.911V41.7a1.7,1.7,0,0,0-3.4,0v6.119l-1.161.774A3.137,3.137,0,0,0,.082,51.905ZM1.862,49.3l.69-.46v2.889a.425.425,0,1,0,.85,0V41.7a.85.85,0,1,1,1.7,0v8.329a.425.425,0,1,0,.85,0V47.054a.85.85,0,1,1,1.7,0v2.975a.425.425,0,1,0,.85,0V47.9a.85.85,0,0,1,1.7,0v2.125a.425.425,0,1,0,.85,0V48.754a.85.85,0,0,1,1.7,0v3.31a9.7,9.7,0,0,1-1.629,5.379.426.426,0,0,0-.071.236v1.53h-6.8v-1.53a.425.425,0,0,0-.125-.3A11.581,11.581,0,0,1,.91,51.711,2.283,2.283,0,0,1,1.862,49.3Zm0,0" transform="translate(0 -38.3)" fill="#010000"/><path d="M226.94,350.007a.425.425,0,0,0,.589-.118,8.769,8.769,0,0,0,1.37-3.478.425.425,0,0,0-.839-.137,7.921,7.921,0,0,1-1.238,3.143A.425.425,0,0,0,226.94,350.007Zm0,0" transform="translate(-217.114 -331.218)" fill="#010000"/><path d="M20.456,3.825a.425.425,0,0,0,.425-.425,2.55,2.55,0,0,1,5.1,0,.425.425,0,1,0,.85,0,3.4,3.4,0,1,0-6.8,0A.425.425,0,0,0,20.456,3.825Zm0,0" transform="translate(-19.18)" fill="#010000"/></svg>