<svg xmlns="http://www.w3.org/2000/svg" width="33" height="33" viewBox="0 0 33 33"><defs><style>.a{fill:#50abf1;}.b{fill:#fff;}</style></defs><g transform="translate(-1033 -4364)"><rect class="a" width="33" height="33" rx="4" transform="translate(1033 4364)"/><g transform="translate(1040.89 4325.497)"><g transform="translate(0 48)"><path class="b" d="M18.345,49.765a7.841,7.841,0,0,1-2.167.594,3.74,3.74,0,0,0,1.655-2.079,7.516,7.516,0,0,1-2.385.91,3.761,3.761,0,0,0-6.506,2.572,3.873,3.873,0,0,0,.087.858,10.645,10.645,0,0,1-7.752-3.934,3.762,3.762,0,0,0,1.156,5.027,3.714,3.714,0,0,1-1.7-.463v.041a3.778,3.778,0,0,0,3.013,3.7,3.754,3.754,0,0,1-.986.124,3.326,3.326,0,0,1-.712-.064,3.8,3.8,0,0,0,3.514,2.62A7.557,7.557,0,0,1,.9,61.269a7.044,7.044,0,0,1-.9-.052,10.588,10.588,0,0,0,5.77,1.688,10.631,10.631,0,0,0,10.7-10.7c0-.166-.006-.327-.014-.486A7.5,7.5,0,0,0,18.345,49.765Z" transform="translate(0 -48)"/></g></g></g></svg>