<svg xmlns="http://www.w3.org/2000/svg" width="33" height="33" viewBox="0 0 33 33"><defs><style>.a{fill:red;}.b{fill:#fff;}</style></defs><g transform="translate(-1076 -4364)"><rect class="a" width="33" height="33" rx="4" transform="translate(1076 4364)"/><path class="b" d="M22.212-3.6a2.841,2.841,0,0,0-2-2c-1.775-.486-8.873-.486-8.873-.486s-7.1,0-8.873.467a2.9,2.9,0,0,0-2,2.017A29.937,29.937,0,0,0,0,1.857,29.827,29.827,0,0,0,.468,7.312a2.842,2.842,0,0,0,2,2C4.26,9.8,11.34,9.8,11.34,9.8s7.1,0,8.873-.467a2.841,2.841,0,0,0,2-2,29.947,29.947,0,0,0,.467-5.455A28.418,28.418,0,0,0,22.212-3.6ZM9.08,5.257v-6.8l5.9,3.4Zm0,0" transform="translate(1081.659 4378.194)"/></g></svg>